<?xml version="1.0" encoding="UTF-8"?>
<svg id="Layer_1" data-name="Layer 1" xmlns="http://www.w3.org/2000/svg" viewBox="0 0 258.18 272.62">
  <defs>
    <style>
      .cls-1 {
        fill: #fff;
      }
    </style>
  </defs>
  <path class="cls-1" d="M127.13,223.75c-1.81-.23-3.73-1.45-5.12-2.61l-59.22-58.89c-8.81-9.55,3.73-23.01,13.96-14.69l35.63,35.44c2.2,1.83,5.31,1.06,6.26-1.65l-.14-115.95c1.08-13.28,19.26-13.76,20.4.6l.27,114.48c.38,3.51,4.33,4.44,6.76,2.09l34.79-34.95c10.53-8.7,23.05,4.25,14.37,14.29l-58.59,59.19c-1.71,1.42-3.17,2.38-5.43,2.64-.95.11-3.02.13-3.95.01Z"/>
  <path class="cls-1" d="M128.93,267.26C58.53,267.26,1.26,209.99,1.26,139.59S58.53,11.92,128.93,11.92s127.67,57.27,127.67,127.67-57.27,127.67-127.67,127.67ZM128.93,27.92c-61.57,0-111.67,50.09-111.67,111.67s50.09,111.67,111.67,111.67,111.67-50.09,111.67-111.67S190.51,27.92,128.93,27.92Z"/>
</svg>