<?xml version="1.0" encoding="UTF-8"?>
<svg id="Layer_1" data-name="Layer 1" xmlns="http://www.w3.org/2000/svg" viewBox="0 0 258.18 272.62">
  <defs>
    <style>
      .cls-1 {
        fill: #fff;
      }

      .cls-2 {
        fill: #005df9;
      }
    </style>
  </defs>
  <path class="cls-1" d="M192.6,168.46c-.13,12.99-18.49,14.18-20.23,1.11l-1.62-50.22c-.35-2.85-3.13-4.42-5.68-3.1l-79.43,84.47c-9.9,8.92-23.45-3.2-14.43-14.43l78.32-83.49c2.13-2.82-.1-6.2-3.48-6.16l-49.3,1.56c-13.63-.89-13.85-18.89-.65-20.25l83.23-2.88c2.22.14,3.94.44,5.76,1.81.77.57,2.29,1.97,2.88,2.7,1.16,1.41,1.73,3.61,1.93,5.41l2.7,83.47Z"/>
  <path class="cls-2" d="M216.51,46.69C165.28-1.6,84.32.79,36.03,52.02c-48.28,51.23-45.89,132.19,5.33,180.47,51.23,48.29,132.19,45.9,180.48-5.33,48.28-51.23,45.89-132.18-5.33-180.47ZM172.37,169.57l-1.62-50.22c-.35-2.85-3.13-4.42-5.68-3.1l-79.43,84.47c-9.9,8.92-23.45-3.2-14.43-14.43l78.32-83.49c2.13-2.82-.1-6.2-3.48-6.16l-49.3,1.56c-13.63-.89-13.85-18.89-.65-20.25l83.23-2.88c2.22.14,3.94.44,5.76,1.81.77.57,2.29,1.97,2.88,2.7,1.16,1.41,1.73,3.61,1.93,5.41l2.7,83.47c-.13,12.99-18.49,14.18-20.23,1.11Z"/>
</svg>