<?xml version="1.0" encoding="UTF-8"?>
<svg id="Layer_1" data-name="Layer 1" xmlns="http://www.w3.org/2000/svg" viewBox="0 0 422.95 422.95">
  <defs>
    <style>
      .cls-1 {
        fill: #fff;
      }
    </style>
  </defs>
  <g>
    <path class="cls-1" d="M192.74,205.86c9.59-2.65,16.96-10.95,17.95-20.96,2.5-25.28-9.05-41.9-34.8-43.78h-76.73v140.73h80.47c6.85,0,20.35-6.55,25.07-11.61,11.86-12.73,15.03-44.13,2.57-57.2-4.2-4.41-9.17-5.1-14.54-7.17ZM127.61,162.07h38.55c.76,0,4.92,1.79,5.87,2.37,9.33,5.76,9.49,25.03.46,30.91-.59.38-3.77,1.9-4.08,1.9h-40.8v-35.18ZM170.65,260.88h-43.04v-42.67h42.29c1.5,0,7.69,1.87,9.35,2.62,18.59,8.42,13.38,40.04-8.61,40.04Z"/>
    <path class="cls-1" d="M279.18,176.3c-26.39-1.55-47.39,10.79-54.63,36.67-11.56,41.33,15.86,74.7,58.93,67.91,22.53-3.55,40.74-17.23,40.25-41.71h-27.32c-1.64,2.4-1.35,5.66-2.48,8.75-4.2,11.51-17.13,15.55-27.86,10.37-9.39-4.54-12.51-16.22-12.7-25.85h70.36c.99-30.53-11.74-54.21-44.55-56.13ZM253.37,218.21c.68-27.79,42.17-28.12,41.92,0h-41.92Z"/>
    <rect class="cls-1" x="246.63" y="155.34" width="56.14" height="14.22"/>
  </g>
  <path class="cls-1" d="M330.11,422.95H92.84c-51.19,0-92.84-41.65-92.84-92.84V92.84C0,41.65,41.65,0,92.84,0h237.27C381.3,0,422.95,41.65,422.95,92.84v237.27c0,51.19-41.65,92.84-92.84,92.84ZM92.84,15C49.92,15,15,49.92,15,92.84v237.27c0,42.92,34.92,77.84,77.84,77.84h237.27c42.92,0,77.84-34.92,77.84-77.84V92.84c0-42.92-34.92-77.84-77.84-77.84H92.84Z"/>
</svg>