<?xml version="1.0" encoding="UTF-8"?>
<svg id="Layer_1" xmlns="http://www.w3.org/2000/svg" version="1.1" xmlns:xlink="http://www.w3.org/1999/xlink" viewBox="0 0 4451.6 550.1">
  <!-- Generator: Adobe Illustrator 29.7.1, SVG Export Plug-In . SVG Version: 2.1.1 Build 8)  -->
  <defs>
    <style>
      .st0 {
        display: none;
        fill: red;
      }

      .st1 {
        fill: #fff;
      }

      .st2 {
        fill: none;
      }

      .st3 {
        clip-path: url(#clippath);
      }
    </style>
    <clipPath id="clippath">
      <rect class="st2" width="4451.6" height="550.1"/>
    </clipPath>
  </defs>
  <g class="st3">
    <rect class="st0" width="4451.6" height="550.1"/>
    <g>
      <path class="st1" d="M-879.8,702.3c-19.9-18.1-8.6-53.6-8.6-80.4.9-25.1,19-20.8,31.1-19,38.9,7.8,49.3-16.4,45-58.8-1.7-13.8,0-10.4-.9-23.3-.9-24.2,4.3-42.4-3.5-62.2-9.5-26.8-34.6-8.6-51.9-13-29.4-7.8-20.8-37.2-21.6-59.7-.9-18.1-1.7-47.5,24.2-45.8,9.5.9,19-.9,28.5,0,19.9,1.7,25.1-10.4,25.1-32-.9-36.3-1.7-98.6-.9-134,1.7-31.1-7.8-43.2-32.8-44.1-14.7,0-38,12.1-42.4-18.1-3.5-26.8-11.2-60.5,6.9-81.3,16.4-18.1,42.4-10.4,62.2-3.5,22.5,7.8,14.7,35.5,13.8,54.5-1.7,38,13.8,40.6,38,40.6s37.2-8.6,32-41.5c-6.1-45.8,9.5-60.5,45.8-57.9,51.9,4.3,86.4,4.3,138.3.9,31.1-1.7,42.4,14.7,38.9,50.1-4.3,38,7.8,52.7,38,46.7,31.1-6.1,40.6,13,38,49.3-1.7,23.3,0,86.4-.9,110.6-1.7,69.2-1.7,66.6-55.3,68.3-17.3,0-19.9,13.8-19.9,30.3s7.8,56.2-13,66.6c-4.3,2.6-8.6,3.5-13,4.3h-14.7c-32-.9-58.8-6.1-90.8-3.5-19.9.9-64.8-12.1-77.8,7.8-7.8,11.2-4.3,43.2-4.3,78.7-.9,70,0,71.7-55.3,79.5-25.1,4.3-22.5,25.1-23.3,45.8-1.7,16.4,6.1,40.6-12.1,46.7-20.8,6.1-47.5,13-63.1-2.6h0ZM-624.8,338.4v-.9l79.5.9c15.6.9,24.2-6.9,24.2-28.5-.9-42.4-.9-109.8,0-152.2,0-23.3-10.4-27.7-25.1-27.7-57.1,0-96,.9-152.2-.9-23.3,0-30.3,13-30.3,38,.9,37.2,2.6,101.1,1.7,138.3-.9,26.8,10.4,33.7,28.5,32.8,30.3-.9,43.2,0,73.5,0h0Z"/>
      <path class="st1" d="M-371.5,682.1c1.7-105.5.9-211.8.9-317.3s.9-214.4-.9-321.6c0-19.9,6.9-25.1,25.9-25.1h81.3c32.8,0,64.8.9,96.8,0h60.5c6.1.9,12.1,1.7,17.3,3.5,6.1.9,12.1,2.6,17.3,6.9,11.2,10.4,9.5,25.9,9.5,39.8v24.2c0,22.5,3.5,32,28.5,30.3,19-1.7,25.1-2.6,44.1-.9,4.3,0,8.6.9,12.1,3.5,12.1,9.5,8.6,28.5,8.6,41.5l.9,153c0,19-5.2,26.8-24.2,24.2-11.2-1.7-22.5.9-33.7-.9-24.2-2.6-33.7,3.5-36.3,24.2,0,3.5,0,19-.9,22.5,0,4.3,0,7.8.9,10.4,2.6,20.8,15.6,21.6,35.4,20.8,64-.9,64,8.6,64,71.7s-1.7,123.6.9,185c.9,29.4-9.5,36.3-36.3,34.6-23.3-1.7-47.5-2.6-70.9,0-25.9,3.5-30.3-7.8-29.4-31.1.9-70.9-.9-141.8.9-212.7,0-19.9-6.1-26.8-25.9-25.9-30.3,1.7-59.7,1.7-89.9,0-17.3-.9-22.5,5.2-22.5,23.3l.9,218.7c.9,21.6-6.1,28.5-27.7,27.7-25.1-1.7-51-1.7-76.9,0-23.3,1.7-31.1-5.2-31.1-30.3h0ZM-157.9,290.5c39.2,0,58.8-19.9,58.8-59.7s-25.1-74.1-75.2-73.5c-41.5,0-62.2,20.7-62.2,62.2,0,47.3,23.1,70.9,69.2,70.9h9.5Z"/>
      <path class="st1" d="M97.1,709.4c-13.8,0-17.3-7.8-16.4-21.6,1.7-50.1.9-101.1,1.7-151.3.9-19.9,7.8-31.1,26.8-26.8,14.7,2.6,23.3-5.2,23.3-20.8.9-20.8,0-49.3,0-70s9.5-32,26.8-30.3c14.7,1.7,25.1-5.2,25.9-20.8,2.6-25.9,6.1-40.6,3.5-70.9-.9-10.4-.9-19-11.2-17.3-9.5.9-26.8-6.1-25.9,10.4.9,18.1-15.6,14.7-25.1,14.7-13,.9-10.4-15.6-10.4-25.1-.9-14.7,6.1-19,17.3-17.3,14.7,2.6,22.5-2.6,21.6-20.8-.9-18.1,8.6-24.2,22.5-24.2,17.3.9,75.2-.9,87.3.9,9.5,1.7,25.9.9,25.9,10.4.9,17.3,4.3,48.4-19,47.5-6.1,0-7.8,6.1-7.8,12.1,0,26.8,2.6,89.9-3.5,102-7.8,13.8-27.7,6.1-38,13.8-8.6,6.1-7.8,22.5-7.8,32l-1.7,47.5c0,17.3-5.2,27.7-21.6,25.9-14.7-1.7-22.5,6.9-24.2,20.8-1.7,25.1-2.6,49.3-2.6,73.5.9,13.8,7.8,14.7,16.4,14.7h19c1.7,0,3.5,0,6.1-.9,1.7,0,3.5-1.7,4.3-3.5.9-1.7,1.7-3.5,1.7-6.1v-19c0-6.9-.9-13,0-19,0-2.6.9-6.1,2.6-7.8,1.7-.9,3.5-1.7,5.2-1.7,7.8-2.6,11.2-.9,19-.9s5.2.9,7.8,1.7,4.3,2.6,5.2,5.2c.9,1.7.9,2.6.9,3.5.9,8.6,0,17.3-.9,25.9-.9,10.4,0,21.6,0,32-.9,7.8-4.3,13.8-13,14.7-13,0-25.1.9-25.1,22.5s-10.4,12.1-18.1,10.4c-13-2.6-18.1,2.6-18.1,18.1s-8.6,19-20.8,18.2c-20.8-1.7-38.9-2.6-59.7-2.6h0ZM215.5,88.7c.9-18.1,2.6-35.5,25.1-30.3,10.4,2.6,11.2-6.9,11.2-14.7-.9-31.1,23.3-24.2,38.9-23.3,15.6,0,15.6,15.6,16.4,29.4.9,10.4.9,19,0,29.4-2.9,37.5-20.7,56.2-53.6,56.2-35.4,0-39.8-6.1-38-46.7h0Z"/>
      <path class="st1" d="M507.7,690.1l1.7-407.2c0-35.5,0-71.7,1.7-108.1,0-14.7-5.2-19-19.9-19l-116.7.9c-16.4,0-24.2-2.6-23.3-21.6.9-32,.9-64,0-96-.9-16.4,6.1-19.9,21.6-19.9l409.8-.9c17.3,0,19.9,6.9,19.9,21.6-.9,32-.9,64,0,96,.9,16.4-5.2,20.8-21.6,20.8-34.6-1.7-69.2.9-104.6-.9-22.5-1.7-29.4,4.3-29.4,27.7,1.7,84.7.9,168.6.9,253.3s-.9,166,0,249.8c.9,19-3.5,27.7-24.2,25.9-31.1-1.7-62.2-.9-92.5,0-17.3.9-23.3-5.2-23.3-22.5h0Z"/>
      <path class="st1" d="M820.6,707.1c-5.2-6.1-6.9-15.6-6.9-30.3.9-17.3-1.7-26.8-7.8-32.8-3.5-4.3-9.5-6.9-15.6-6.9s-5.2.9-7.8.9c-1.7.9-3.5.9-5.2.9-4.3,0-6.9-1.7-9.5-3.5-4.3-4.3-6.1-13-6.9-25.1,0-23.3.9-45.8-.9-69.2-1.7-21.6-2.6-40.6,5.2-49.3,3.5-4.3,8.6-6.1,15.6-6.1s4.3,0,6.9.9h2.6c4.3,0,10.4-1.7,13-10.4.9-5.2.9-11.2,0-16.4v-3.5l-.9-16.4c-.9-28.5,1.7-58.8,0-88.2-1.7-37.2,12.1-41.5,22.5-41.5h5.2c7.8,0,13.8-2.6,18.1-6.9,6.9-7.8,1.7-22.5,0-36.3-3.5-25.9-1.7-41.5,5.2-49.3,3.5-4.3,8.6-6.1,16.4-6.1s4.3,0,7.8.9h4.3c4.3,0,8.6-1.7,11.2-5.2,4.3-4.3,5.2-11.2,3.5-20.8-3.5-16.4-2.6-27.7,2.6-34.6,5.2-6.1,13-8.6,24.2-8.6s14.7-.9,19-6.9c4.3-4.3,5.2-10.4,4.3-19-1.7-13.8,0-23.3,4.3-28.5,3.5-3.5,8.6-5.2,15.6-5.2h7.8c3.5.9,6.1.9,9.5.9,9.5,0,16.4-2.6,20.8-7.8,5.2-6.9,6.9-19,3.5-35.4-.9-8.6-.9-14.7,2.6-17.3,1.7-3.5,6.1-4.3,13-4.3h182.4c6.9,0,11.2.9,14.7,4.3,3.5,4.3,5.2,12.1,5.2,23.3-.9,14.7,1.7,25.1,6.9,31.1,4.3,4.3,9.5,6.1,16.4,6.1s4.3,0,6.9-.9h5.2c3.5,0,6.1.9,7.8,2.6,4.3,4.3,6.9,13,6.9,26.8,1.7,42.4,0,74.4,2.6,105.5.9,15.6-.9,25.1-5.2,30.3-2.6,2.6-5.2,3.5-10.4,3.5s-4.3,0-6.9-.9c-3.5-.9-6.9-.9-9.5-.9-6.1,0-11.2,1.7-14.7,6.1-5.2,6.1-6.1,16.4-4.3,32.8,2.6,16.4,1.7,70.9,1.7,83s4.3,22.5-3.5,28.5c-1.7,1.7-3.5,2.6-6.1,2.6-8.6,1.7-16.4-.9-23.3,6.9-5.2,6.1-6.1,17.3-6.1,33.7v24.2c3.5,21.6.9,37.2-5.2,45-4.3,4.3-9.5,6.9-17.3,6.9s-8.6-.9-13.8-1.7c-2.6-.9-4.3-1.7-6.9-1.7-4.3,0-8.6,2.6-12.1,6.1-4.3,5.2-5.2,13.8-3.5,25.1,2.6,19,1.7,32-3.5,38-2.6,2.6-6.9,4.3-12.1,4.3s-6.9-.9-12.1-1.7c-2.6-.9-5.2-1.7-7.8-1.7-5.2,0-10.4,1.7-13,5.2-3.5,4.3-5.2,11.2-4.3,19,.9,12.1-.9,20.8-4.3,25.1-2.6,2.6-6.1,3.5-11.2,3.5s-6.1,0-8.6-.9c-4.3-.9-8.6-.9-12.1-.9-9.5,0-16.4,2.6-21.6,8.6-7.8,7.8-10.4,20.8-8.6,40.6.9,8.6,0,15.6-3.5,19-2.6,3.5-6.9,4.3-13,4.3l-72.6.9h-89c-6.1,0-10.4-1.7-13.8-4.3h0ZM976.2,629.3c2.6-3.5,4.3-8.6,2.6-15.6-1.7-13,0-15.6,3.5-19.9,2.6-2.6,6.9-4.3,13.8-4.3l8.6.9h6.1c6.1,0,13.8-.9,19-6.9,5.2-6.1,6.9-15.6,5.2-29.4-.9-6.9-.9-13.8,1.7-19.9,2.6-4.3,9.5-5.2,14.7-5.2s10.4.9,14.7,1.7c6.9,0,13.8-3.5,17.3-7.8,7.8-9.5,9.5-22.5,5.2-51-1.7-11.2-.9-18.1,1.7-22.5,2.6-2.6,5.2-3.5,9.5-3.5s4.3,0,6.1.9c3.5,0,6.1.9,7.8.9,6.1,0,11.2-1.7,14.7-6.1,4.3-5.2,6.1-14.7,5.2-30.3l-.9-61.4c.9-14.7,2.6-31.1,1.7-46.7,0-7.8,1.7-19.9,11.2-21.6,9.5-1.7,22.5,1.7,27.7-8.6,4.3-8.6,2.6-19,1.7-27.7-1.7-11.2-.9-115-6.1-128.8-6.1-17.3-19-20.8-35.4-20.8s-30.3.9-43.2,2.6h-9.5c-8.6.9-13.8,6.9-13,16.4,0,8.6,2.6,31.1-4.3,37.2-2.6,1.7-6.1,2.6-8.6,3.5-13.8,3.5-23.3-1.7-36.3-1.7s-9.5,1.7-12.1,5.2c-6.9,6.9-6.9,7.8-5.2,21.6.9,9.5,1.7,22.5-2.6,27.7-1.7,1.7-4.3,2.6-7.8,2.6h-4.3c-4.3-.9-7.8-1.7-11.2-1.7-7.8,0-13.8,2.6-18.1,7.8-6.9,7.8-8.6,21.6-5.2,40.6,2.6,14.7.9,25.9-3.5,31.1-2.6,2.6-6.1,4.3-10.4,4.3s-5.2-.9-7.8-.9c-2.6-.9-6.1-1.7-8.6-1.7-6.1,0-11.2,2.6-14.7,6.1-5.2,6.1-6.9,16.4-5.2,33.7,1.7,29.4.9,58.8,1.7,88.2,0,3.5-1.7,7.8-1.7,12.1.9,15.6,0,29.4-9.5,29.4-12.1.9-20.8,5.2-25.1,15.6-3.5,7.8-2.6,19-3.5,31.1v1.7c-1.7,23.3-1.7,47.5,0,70.9.9,12.1,1.7,19,1.7,32s.9,14.7,5.2,18.2c1.7,2.6,5.2,3.5,7.8,3.5l87.3.9c5.2,0,8.6-1.7,10.4-4.3h0Z"/>
      <path class="st1" d="M1797.5,705.3c-6.9-6.9-6.1-14.7-6.1-23.3l.9-32.8,3.5-59.7c1.7-17.3-8.6-56.2,12.1-67.4,10.4-5.2,24.2-1.7,31.1-9.5,5.2-4.3,5.2-11.2,6.1-18.1,1.7-27.7-2.6-54.5-.9-81.3.9-4.3.9-8.6,2.6-12.1,4.3-8.6,15.6-13,25.9-12.1,19.9.9,20.8-17.3,22.5-32.8l4.3-38.9c1.7-18.1,1.7-35.4,2.6-53.6,0-8.6,0-17.3,1.7-26.8.9-4.3.9-13,4.3-17.3.9-1.7,3.5-2.6,6.1-3.5,7.8-2.6,14.7-1.7,22.5-1.7s13.8-6.9,16.4-21.6c0-1.7,0-3.5.9-5.2,1.7-13.8,1.7-28.5,0-42.4-.9-4.3-1.7-9.5-6.1-12.1-13.8-8.6-45.8-4.3-49.3,14.7-.9,6.1.9,12.1-.9,17.3-3.5,8.6-13.8,12.1-22.5,13-9.5,0-19-.9-26.8,2.6-3.5.9-6.9,2.6-8.6,6.1-.9,2.6-1.7,5.2-1.7,7.8-.9,9.5,1.7,21.6-6.1,27.7-3.5,2.6-8.6,3.5-13,4.3-10.4.9-14.7-1.7-24.2,2.6-10.4,4.3-8.6,23.3-9.5,32,0,7.8-4.3,15.6-11.2,19.9-6.1,5.2-20.8,2.6-27.7,5.2-6.1,1.7-6.9,4.3-6.9,12.1-.9,8.6,0,34.6-2.6,43.2-1.7,7.8-7.8,16.4-16.4,18.1-2.6.9-6.1.9-9.5.9-19,1.7-28.5,18.1-30.3,36.3-1.7,16.7-2.3,33.7-1.7,51,.9,8.6,1.7,19-2.6,27.7-6.1,12.1-19.9,13-32,10.4h-2.6c-10.4,0-13,11.2-14.7,30.3l-2.6,21.6c-1.7,16.4-.9,33.7-2.6,50.1-1.7,19.9,0,37.2-7.8,45-3.5,3.5-7.8,5.2-13,5.2s-3.5-.9-5.2-.9h-3.5c-3.5,0-6.9.9-9.5,4.3-6.1,6.1-6.9,16.4-7.8,25.1-.9,32-10.4,40.6-30.3,43.2h-10.4c-.9-.9-2.6-.9-4.3-.9-4.3,0-7.8.9-11.2,1.7s-6.9.9-10.4.9c-5.2,0-8.6-1.7-10.4-8.6-4.3-19.9-2.6-43.2-1.7-64,0-4.3.9-8.6,2.6-12.1,7.8-12.1,24.2-4.3,31.1-13.8,2.6-3.5,2.6-6.9,2.6-11.2.9-11.2,10.4-92.5,6.1-82.1,6.1-25.9,8.6-35.4,19-35.4s4.3.9,6.9.9c2.6.9,4.3,1.7,6.9,1.7,4.3,0,8.6-1.7,12.1-5.2,5.2-6.1,4.3-14.7,6.1-30.3,1.7-23.3.9-47.5,4.3-70.9,1.7-13,2.6-25.9,3.5-39.8.9-5.2,1.7-11.2,5.2-15.6,12.1-14.7,37.2,1.7,41.5-25.1,6.1-45,15.6-89.9,15.6-135.7s1.7-19.9,0-29.4c-3.5-11.2-21.6-15.6-31.1-6.1-3.5,3.5-1.7,9.5-3.5,14.7-.9,4.3-5.2,6.9-9.5,8.6-7.8,2.6-13.8.9-22.5,2.6-3.5,0-6.9.9-10.4,1.7-10.4,1.7-15.6,9.5-15.6,25.1-.9,12.1-2.6,20.8-6.9,25.1-2.6,2.6-10.4,4.3-15.6,4.3h-6.9c-2.6-.9-5.2-.9-7.8-.9-6.9,0-8.6,1.7-13,6.1-4.3,6.1-6.9,14.7-6.9,27.7s-.9,15.6-8.6,19.9c-7.8,4.3-22.5-1.7-27.7,8.6-1.7,2.6-1.7,5.2-2.6,8.6-.9,7.8-.9,15.6-.9,23.3s0,5.2-.9,6.9c-1.7,5.2-6.1,8.6-11.2,9.5-11.2,3.5-25.9-2.6-34.6,6.9-5.2,5.2-7.8,13.8-8.6,27.7-1.7,15.6,1.7,32,0,47.5-1.7,14.7-1.7,30.3-2.6,45-.9,13-3.5,21.6-7.8,25.9-1.7,1.7-4.3,2.6-7.8,2.6h-4.3c-2.6-.9-4.3-.9-6.9-.9-6.1,0-10.4,1.7-14.7,6.1-6.1,6.1-5.2,17.3-6.1,34.6-2.6,38.9-6.1,64-9.5,102,0,2.6,0,4.3-.9,6.1-2.6,5.2-7.8,6.9-12.1,6.9-5.2.9-10.4,0-14.7,1.7-10.4,4.3-8.6,32-10.4,40.6,0,2.6-.9,5.2-1.7,7.8-6.1,27.7-13,30.3-21.6,30.3s-6.9-.9-11.2-.9c-3.5-.9-7.8-1.7-12.1-1.7s-2.6.9-3.5.9h-2.6c-3.5,0-6.1-.9-6.9-2.6-4.3-5.2-6.1-17.3-4.3-27.7,0-2.6.9-5.2.9-7.8,1.7-21.6,0-43.2,2.6-64,3.5-31.1,4.3-63.1,6.9-94.2,0-3.5.9-7.8,3.5-10.4,1.7-1.7,4.3-2.6,6.9-2.6,13-2.6,27.7.9,38-10.4,7.8-7.8,7.8-21.6,8.6-43.2.9-20.8,2.6-40.6,6.1-61.4,2.6-18.1-.9-36.3.9-54.5,0-1.7.9-3.5.9-5.2,5.2-12.1,19-8.6,28.5-8.6s7.8-1.7,11.2-6.1c6.1-6.1,9.5-17.3,10.4-36.3,1.7-25.1.9-50.1,2.6-75.2,0-3.5,0-6.1,1.7-8.6,2.6-7.8,12.1-6.1,17.3-8.6,6.1-1.7,6.9-9.5,7.8-14.7,2.6-19,2.6-38,3.5-58.8,0-3.5-1.7-6.9-4.3-8.6-6.1-4.3-25.9-.9-32.8-.9-8.6.9-15.6,1.7-16.4,12.1-.9,18.1-16.4,15.6-25.9,15.6s-7.8-16.4-7.8-26.8c.9-15.6,9.5-20.8,19.9-19,13.8,2.6,21.6-2.6,23.3-21.6.9-19,7.8-25.9,20.8-25.1h10.4c31.1-.9,62.2-1.7,93.4,0l10.4,1.7c2.6.9,6.1,2.6,7.8,6.1,2.6,5.2,1.7,12.1,1.7,17.3s-.9,12.1-1.7,17.3c-1.7,10.4-6.9,19.9-18.1,19.9s-8.6,6.1-8.6,12.1l-3.5,45c0,7.8-.9,16.4-1.7,25.1,0,6.1-3.5,19.9.9,25.9,3.5,3.5,7.8,3.5,12.1,4.3s8.6,0,12.1-3.5c.9-1.7.9-3.5,1.7-5.2,1.7-12.1,1.7-23.3,2.6-35.4.9-6.1,2.6-15.6,6.9-19,4.3-2.6,9.5-1.7,13.8-1.7l17.3.9c6.1,0,12.1-.9,18.1-6.1,5.2-6.1,7.8-13.8,7.8-29.4s-1.7-19,2.6-23.3c2.6-3.5,7.8-5.2,13.8-5.2s5.2,0,8.6.9c5.2.9,9.5,1.7,13,1.7,8.6,0,14.7-2.6,19-7.8,6.9-7.8,9.5-19.9,8.6-38,0-6.9,1.7-12.1,3.5-14.7,2.6-2.6,6.9-4.3,13-4.3h.9l45.8.9,45.8-.9h.9c5.2,0,9.5.9,11.2,4.3,3.5,4.3,4.3,12.1,2.6,24.2-2.6,18.1-12.1,118.4-11.2,151.3,0,4.3,0,8.6,3.5,11.2,2.6,1.7,6.1.9,9.5.9l6.9-.9c3.5-.9,6.9-.9,9.5-3.5,2.6-3.5,1.7-7.8,1.7-11.2-.9-8.6.9-17.3.9-26.8s0-7.8.9-11.2c2.6-3.5,6.1-6.9,10.4-7.8,6.1-2.6,14.7-2.6,21.6-3.5,7.8-.9,32,.9,33.7-9.5,1.7-8.6-1.7-21.6-.9-31.1.9-28.5,49.3-12.1,63.1-28.5,7.8-7.8,7.8-20.8,6.9-41.5,0-5.2,1.7-9.5,3.5-12.1,2.6-2.6,6.1-3.5,12.1-3.5h62.2c28.5,0,42.4.9,47.5,12.1,6.9,15.6,7.8,35.5,6.9,52.7,0,14.7-3.5,29.4-2.6,44.1,0,17.3-.9,34.6-2.6,52.7-.9,2.6-1.7,6.1-4.3,7.8-1.7,1.7-4.3,2.6-6.1,2.6-6.9.9-13.8,1.7-19.9,4.3s-12.1,6.1-15.6,12.1c-1.7,4.3-1.7,7.8-2.6,12.1-3.5,20.8-3.5,42.4-5.2,63.1-1.7,23.3.9,49.3-10.4,60.5-4.3,4.3-9.5,6.9-17.3,6.9s-6.1-.9-9.5-1.7h-2.6c-3.5,0-10.4,1.7-13.8,12.1-1.7,6.1.9,13,0,19-3.5,38-2.6,71.7-6.9,104.6-3.5,32-13.8,32-18.1,32h-4.3c-1.7-.9-3.5-.9-5.2-.9-18.1,0-20.8,20.8-23.3,33.7-2.6,10.4-2.6,20.8-2.6,30.3v19.9c0,6.9.9,13.8,0,19.9.9,4.3.9,10.4,5.2,12.1,1.7.9,3.5.9,5.2.9,3.5.9,6.9,0,10.4.9h4.3c4.3,0,9.5-.9,13.8-5.2,3.5-4.3,3.5-11.2,4.3-20.8,0-10.4,1.7-17.3,5.2-21.6,2.6-1.7,5.2-3.5,8.6-3.5s1.7,0,2.6.9h3.5c7.8,0,11.2-2.6,15.6-7.8,6.9-7.8,7.8-19.9,8.6-37.2,0-13,1.7-21.6,6.1-25.9,1.7-1.7,4.3-2.6,9.5-2.6h6.9c2.6.9,6.1.9,8.6.9h1.7c1.7,0,2.6,0,4.3-.9h6.9c4.3,0,6.9.9,7.8,2.6,2.6,3.5,2.6,10.4.9,20.8-.9,5.2.9,10.4.9,15.6-2.6,23.3-5.2,33.7-18.1,33.7s-.9,0-2.6-.9h-5.2c-5.2,0-9.5,1.7-13,5.2-4.3,5.2-6.9,14.7-7.8,29.4,0,17.3-.9,29.4-6.1,34.6-3.5,3.5-6.9,4.3-11.2,4.3s-5.2,0-7.8-.9c-3.5-.9-6.1-.9-8.6-.9-5.2,0-10.4,1.7-14.7,6.1-5.2,6.1-6.1,15.6-6.1,29.4s-1.7,15.6-4.3,18.1-6.1,3.5-12.1,3.5h-4.3c-4.3,0-60.5,2.6-71.7,1.7-9.5-.9-19,0-26.8-6.9h0Z"/>
      <path class="st1" d="M2673.8,705.3c-6.9-6.9-6.1-14.7-6.1-23.3l.9-32.8,3.5-59.7c1.7-17.3-8.6-56.2,12.1-67.4,10.4-5.2,24.2-1.7,31.1-9.5,5.2-4.3,5.2-11.2,6.1-18.1,1.7-27.7-2.6-54.5-.9-81.3.9-4.3.9-8.6,2.6-12.1,4.3-8.6,15.6-13,25.9-12.1,19.9.9,20.8-17.3,22.5-32.8l4.3-38.9c1.7-18.1,1.7-35.4,2.6-53.6,0-8.6,0-17.3,1.7-26.8.9-4.3.9-13,4.3-17.3.9-1.7,3.5-2.6,6.1-3.5,7.8-2.6,14.7-1.7,22.5-1.7s13.8-6.9,16.4-21.6c0-1.7,0-3.5.9-5.2,1.7-13.8,1.7-28.5,0-42.4-.9-4.3-1.7-9.5-6.1-12.1-13.8-8.6-45.8-4.3-49.3,14.7-.9,6.1.9,12.1-.9,17.3-3.5,8.6-13.8,12.1-22.5,13-9.5,0-19-.9-26.8,2.6-3.5.9-6.9,2.6-8.6,6.1-.9,2.6-1.7,5.2-1.7,7.8-.9,9.5,1.7,21.6-6.1,27.7-3.5,2.6-8.6,3.5-13,4.3-10.4.9-14.7-1.7-24.2,2.6-10.4,4.3-8.6,23.3-9.5,32,0,7.8-4.3,15.6-11.2,19.9-6.1,5.2-20.8,2.6-27.7,5.2-6.1,1.7-6.9,4.3-6.9,12.1-.9,8.6,0,34.6-2.6,43.2-1.7,7.8-7.8,16.4-16.4,18.1-2.6.9-6.1.9-9.5.9-19,1.7-28.5,18.1-30.3,36.3-1.7,16.7-2.3,33.7-1.7,51,.9,8.6,1.7,19-2.6,27.7-6.1,12.1-19.9,13-32,10.4h-2.6c-10.4,0-13,11.2-14.7,30.3l-2.6,21.6c-1.7,16.4-.9,33.7-2.6,50.1-1.7,19.9,0,37.2-7.8,45-3.5,3.5-7.8,5.2-13,5.2s-3.5-.9-5.2-.9h-3.5c-3.5,0-6.9.9-9.5,4.3-6.1,6.1-6.9,16.4-7.8,25.1-.9,32-10.4,40.6-30.3,43.2h-10.4c-.9-.9-2.6-.9-4.3-.9-4.3,0-7.8.9-11.2,1.7-3.5.9-6.9.9-10.4.9-5.2,0-8.6-1.7-10.4-8.6-4.3-19.9-2.6-43.2-1.7-64,0-4.3.9-8.6,2.6-12.1,7.8-12.1,24.2-4.3,31.1-13.8,2.6-3.5,2.6-6.9,2.6-11.2.9-11.2,10.4-92.5,6.1-82.1,6.1-25.9,8.6-35.4,19-35.4s4.3.9,6.9.9c2.6.9,4.3,1.7,6.9,1.7,4.3,0,8.6-1.7,12.1-5.2,5.2-6.1,4.3-14.7,6.1-30.3,1.7-23.3.9-47.5,4.3-70.9,1.7-13,2.6-25.9,3.5-39.8.9-5.2,1.7-11.2,5.2-15.6,12.1-14.7,37.2,1.7,41.5-25.1,6.1-45,15.6-89.9,15.6-135.7s1.7-19.9,0-29.4c-3.5-11.2-21.6-15.6-31.1-6.1-3.5,3.5-1.7,9.5-3.5,14.7-.9,4.3-5.2,6.9-9.5,8.6-7.8,2.6-13.8.9-22.5,2.6-3.5,0-6.9.9-10.4,1.7-10.4,1.7-15.6,9.5-15.6,25.1-.9,12.1-2.6,20.8-6.9,25.1-2.6,2.6-10.4,4.3-15.6,4.3h-6.9c-2.6-.9-5.2-.9-7.8-.9-6.9,0-8.6,1.7-13,6.1-4.3,6.1-6.9,14.7-6.9,27.7s-.9,15.6-8.6,19.9-22.5-1.7-27.7,8.6c-1.7,2.6-1.7,5.2-2.6,8.6-.9,7.8-.9,15.6-.9,23.3s0,5.2-.9,6.9c-1.7,5.2-6.1,8.6-11.2,9.5-11.2,3.5-25.9-2.6-34.6,6.9-5.2,5.2-7.8,13.8-8.6,27.7-1.7,15.6,1.7,32,0,47.5-1.7,14.7-1.7,30.3-2.6,45-.9,13-3.5,21.6-7.8,25.9-1.7,1.7-4.3,2.6-7.8,2.6h-4.3c-2.6-.9-4.3-.9-6.9-.9-6.1,0-10.4,1.7-14.7,6.1-6.1,6.1-5.2,17.3-6.1,34.6-2.6,38.9-6.1,64-9.5,102,0,2.6,0,4.3-.9,6.1-2.6,5.2-7.8,6.9-12.1,6.9-5.2.9-10.4,0-14.7,1.7-10.4,4.3-8.6,32-10.4,40.6,0,2.6-.9,5.2-1.7,7.8-6.1,27.7-13,30.3-21.6,30.3s-6.9-.9-11.2-.9c-3.5-.9-7.8-1.7-12.1-1.7s-2.6.9-3.5.9h-2.6c-3.5,0-6.1-.9-6.9-2.6-4.3-5.2-6.1-17.3-4.3-27.7,0-2.6.9-5.2.9-7.8,1.7-21.6,0-43.2,2.6-64,3.5-31.1,4.3-63.1,6.9-94.2,0-3.5.9-7.8,3.5-10.4,1.7-1.7,4.3-2.6,6.9-2.6,13-2.6,27.7.9,38-10.4,7.8-7.8,7.8-21.6,8.6-43.2.9-20.8,2.6-40.6,6.1-61.4,2.6-18.1-.9-36.3.9-54.5,0-1.7.9-3.5.9-5.2,5.2-12.1,19-8.6,28.5-8.6s7.8-1.7,11.2-6.1c6.1-6.1,9.5-17.3,10.4-36.3,1.7-25.1.9-50.1,2.6-75.2,0-3.5,0-6.1,1.7-8.6,2.6-7.8,12.1-6.1,17.3-8.6,6.1-1.7,6.9-9.5,7.8-14.7,2.6-19,2.6-38,3.5-58.8,0-3.5-1.7-6.9-4.3-8.6-6.1-4.3-25.9-.9-32.8-.9-8.6.9-15.6,1.7-16.4,12.1-.9,18.1-16.4,15.6-25.9,15.6s-7.8-16.4-7.8-26.8c.9-15.6,9.5-20.8,19.9-19,13.8,2.6,21.6-2.6,23.3-21.6.9-19,7.8-25.9,20.8-25.1h10.4c31.1-.9,62.2-1.7,93.4,0l10.4,1.7c2.6.9,6.1,2.6,7.8,6.1,2.6,5.2,1.7,12.1,1.7,17.3s-.9,12.1-1.7,17.3c-1.7,10.4-6.9,19.9-18.1,19.9s-8.6,6.1-8.6,12.1l-3.5,45c0,7.8-.9,16.4-1.7,25.1,0,6.1-3.5,19.9.9,25.9,3.5,3.5,7.8,3.5,12.1,4.3s8.6,0,12.1-3.5c.9-1.7.9-3.5,1.7-5.2,1.7-12.1,1.7-23.3,2.6-35.4.9-6.1,2.6-15.6,6.9-19,4.3-2.6,9.5-1.7,13.8-1.7l17.3.9c6.1,0,12.1-.9,18.1-6.1,5.2-6.1,7.8-13.8,7.8-29.4s-1.7-19,2.6-23.3c2.6-3.5,7.8-5.2,13.8-5.2s5.2,0,8.6.9c5.2.9,9.5,1.7,13,1.7,8.6,0,14.7-2.6,19-7.8,6.9-7.8,9.5-19.9,8.6-38,0-6.9,1.7-12.1,3.5-14.7,2.6-2.6,6.9-4.3,13-4.3h.9l45.8.9,45.8-.9h.9c5.2,0,9.5.9,11.2,4.3,3.5,4.3,4.3,12.1,2.6,24.2-2.6,18.2-12.1,118.4-11.2,151.3,0,4.3,0,8.6,3.5,11.2,2.6,1.7,6.1.9,9.5.9l6.9-.9c3.5-.9,6.9-.9,9.5-3.5,2.6-3.5,1.7-7.8,1.7-11.2-.9-8.6.9-17.3.9-26.8s0-7.8.9-11.2c2.6-3.5,6.1-6.9,10.4-7.8,6.1-2.6,14.7-2.6,21.6-3.5,7.8-.9,32,.9,33.7-9.5,1.7-8.6-1.7-21.6-.9-31.1.9-28.5,49.3-12.1,63.1-28.5,7.8-7.8,7.8-20.8,6.9-41.5,0-5.2,1.7-9.5,3.5-12.1,2.6-2.6,6.1-3.5,12.1-3.5h62.2c28.5,0,42.4.9,47.5,12.1,6.9,15.6,7.8,35.4,6.9,52.7,0,14.7-3.5,29.4-2.6,44.1,0,17.3-.9,34.6-2.6,52.7-.9,2.6-1.7,6.1-4.3,7.8-1.7,1.7-4.3,2.6-6.1,2.6-6.9.9-13.8,1.7-19.9,4.3s-12.1,6.1-15.6,12.1c-1.7,4.3-1.7,7.8-2.6,12.1-3.5,20.8-3.5,42.4-5.2,63.1-1.7,23.3.9,49.3-10.4,60.5-4.3,4.3-9.5,6.9-17.3,6.9s-6.1-.9-9.5-1.7h-2.6c-3.5,0-10.4,1.7-13.8,12.1-1.7,6.1.9,13,0,19-3.5,38-2.6,71.7-6.9,104.6-3.5,32-13.8,32-18.1,32h-4.3c-1.7-.9-3.5-.9-5.2-.9-18.1,0-20.8,20.8-23.3,33.7-2.6,10.4-2.6,20.8-2.6,30.3v19.9c0,6.9.9,13.8,0,19.9.9,4.3.9,10.4,5.2,12.1,1.7.9,3.5.9,5.2.9,3.5.9,6.9,0,10.4.9h4.3c4.3,0,9.5-.9,13.8-5.2,3.5-4.3,3.5-11.2,4.3-20.8,0-10.4,1.7-17.3,5.2-21.6,2.6-1.7,5.2-3.5,8.6-3.5s1.7,0,2.6.9h3.5c7.8,0,11.2-2.6,15.6-7.8,6.9-7.8,7.8-19.9,8.6-37.2,0-13,1.7-21.6,6.1-25.9,1.7-1.7,4.3-2.6,9.5-2.6h6.9c2.6.9,6.1.9,8.6.9h1.7c1.7,0,2.6,0,4.3-.9h6.9c4.3,0,6.9.9,7.8,2.6,2.6,3.5,2.6,10.4.9,20.8-.9,5.2.9,10.4.9,15.6-2.6,23.3-5.2,33.7-18.1,33.7s-.9,0-2.6-.9h-5.2c-5.2,0-9.5,1.7-13,5.2-4.3,5.2-6.9,14.7-7.8,29.4,0,17.3-.9,29.4-6.1,34.6-3.5,3.5-6.9,4.3-11.2,4.3s-5.2,0-7.8-.9c-3.5-.9-6.1-.9-8.6-.9-5.2,0-10.4,1.7-14.7,6.1-5.2,6.1-6.1,15.6-6.1,29.4s-1.7,15.6-4.3,18.1c-2.6,2.6-6.1,3.5-12.1,3.5h-4.3c-4.3,0-60.5,2.6-71.7,1.7-9.5-.9-19,0-26.8-6.9h0Z"/>
      <path class="st1" d="M2979,707.1c-5.2-6.1-6.9-15.6-6.9-30.3.9-17.3-1.7-26.8-7.8-32.8-3.5-4.3-9.5-6.9-15.6-6.9s-5.2.9-7.8.9c-1.7.9-3.5.9-5.2.9-4.3,0-6.9-1.7-9.5-3.5-4.3-4.3-6.1-13-6.9-25.1,0-23.3.9-45.8-.9-69.2-1.7-21.6-2.6-40.6,5.2-49.3,3.5-4.3,8.6-6.1,15.6-6.1s4.3,0,6.9.9h2.6c4.3,0,10.4-1.7,13-10.4.9-5.2.9-11.2,0-16.4v-3.5l-.9-16.4c-.9-28.5,1.7-58.8,0-88.2-1.7-37.2,12.1-41.5,22.5-41.5h5.2c7.8,0,13.8-2.6,18.1-6.9,6.9-7.8,1.7-22.5,0-36.3-3.5-25.9-1.7-41.5,5.2-49.3,3.5-4.3,8.6-6.1,16.4-6.1s4.3,0,7.8.9h4.3c4.3,0,8.6-1.7,11.2-5.2,4.3-4.3,5.2-11.2,3.5-20.8-3.5-16.4-2.6-27.7,2.6-34.6,5.2-6.1,13-8.6,24.2-8.6s14.7-.9,19-6.9c4.3-4.3,5.2-10.4,4.3-19-1.7-13.8,0-23.3,4.3-28.5,3.5-3.5,8.6-5.2,15.6-5.2h7.8c3.5.9,6.1.9,9.5.9,9.5,0,16.4-2.6,20.8-7.8,5.2-6.9,6.9-19,3.5-35.4-.9-8.6-.9-14.7,2.6-17.3,1.7-3.5,6.1-4.3,13-4.3h182.4c6.9,0,11.2.9,14.7,4.3,3.5,4.3,5.2,12.1,5.2,23.3-.9,14.7,1.7,25.1,6.9,31.1,4.3,4.3,9.5,6.1,16.4,6.1s4.3,0,6.9-.9h5.2c3.5,0,6.1.9,7.8,2.6,4.3,4.3,6.9,13,6.9,26.8,1.7,42.4,0,74.4,2.6,105.5.9,15.6-.9,25.1-5.2,30.3-2.6,2.6-5.2,3.5-10.4,3.5s-4.3,0-6.9-.9c-3.5-.9-6.9-.9-9.5-.9-6.1,0-11.2,1.7-14.7,6.1-5.2,6.1-6.1,16.4-4.3,32.8,2.6,16.4,1.7,70.9,1.7,83s4.3,22.5-3.5,28.5c-1.7,1.7-3.5,2.6-6.1,2.6-8.6,1.7-16.4-.9-23.3,6.9-5.2,6.1-6.1,17.3-6.1,33.7v24.2c3.5,21.6.9,37.2-5.2,45-4.3,4.3-9.5,6.9-17.3,6.9s-8.6-.9-13.8-1.7c-2.6-.9-4.3-1.7-6.9-1.7-4.3,0-8.6,2.6-12.1,6.1-4.3,5.2-5.2,13.8-3.5,25.1,2.6,19,1.7,32-3.5,38-2.6,2.6-6.9,4.3-12.1,4.3s-6.9-.9-12.1-1.7c-2.6-.9-5.2-1.7-7.8-1.7-5.2,0-10.4,1.7-13,5.2-3.5,4.3-5.2,11.2-4.3,19,.9,12.1-.9,20.8-4.3,25.1-2.6,2.6-6.1,3.5-11.2,3.5s-6.1,0-8.6-.9c-4.3-.9-8.6-.9-12.1-.9-9.5,0-16.4,2.6-21.6,8.6-7.8,7.8-10.4,20.8-8.6,40.6.9,8.6,0,15.6-3.5,19-2.6,3.5-6.9,4.3-13,4.3l-72.6.9h-89c-6.1,0-10.4-1.7-13.8-4.3h0ZM3134.6,629.3c2.6-3.5,4.3-8.6,2.6-15.6-1.7-13,0-15.6,3.5-19.9,2.6-2.6,6.9-4.3,13.8-4.3l8.6.9h6.1c6.1,0,13.8-.9,19-6.9,5.2-6.1,6.9-15.6,5.2-29.4-.9-6.9-.9-13.8,1.7-19.9,2.6-4.3,9.5-5.2,14.7-5.2s10.4.9,14.7,1.7c6.9,0,13.8-3.5,17.3-7.8,7.8-9.5,9.5-22.5,5.2-51-1.7-11.2-.9-18.1,1.7-22.5,2.6-2.6,5.2-3.5,9.5-3.5s4.3,0,6.1.9c3.5,0,6.1.9,7.8.9,6.1,0,11.2-1.7,14.7-6.1,4.3-5.2,6.1-14.7,5.2-30.3l-.9-61.4c.9-14.7,2.6-31.1,1.7-46.7,0-7.8,1.7-19.9,11.2-21.6,9.5-1.7,22.5,1.7,27.7-8.6,4.3-8.6,2.6-19,1.7-27.7-1.7-11.2-.9-115-6.1-128.8-6.1-17.3-19-20.8-35.5-20.8s-30.3.9-43.2,2.6h-9.5c-8.6.9-13.8,6.9-13,16.4,0,8.6,2.6,31.1-4.3,37.2-2.6,1.7-6.1,2.6-8.6,3.5-13.8,3.5-23.3-1.7-36.3-1.7s-9.5,1.7-12.1,5.2c-6.9,6.9-6.9,7.8-5.2,21.6.9,9.5,1.7,22.5-2.6,27.7-1.7,1.7-4.3,2.6-7.8,2.6h-4.3c-4.3-.9-7.8-1.7-11.2-1.7-7.8,0-13.8,2.6-18.1,7.8-6.9,7.8-8.6,21.6-5.2,40.6,2.6,14.7.9,25.9-3.5,31.1-2.6,2.6-6.1,4.3-10.4,4.3s-5.2-.9-7.8-.9c-2.6-.9-6.1-1.7-8.6-1.7-6.1,0-11.2,2.6-14.7,6.1-5.2,6.1-6.9,16.4-5.2,33.7,1.7,29.4.9,58.8,1.7,88.2,0,3.5-1.7,7.8-1.7,12.1.9,15.6,0,29.4-9.5,29.4-12.1.9-20.8,5.2-25.1,15.6-3.5,7.8-2.6,19-3.5,31.1v1.7c-1.7,23.3-1.7,47.5,0,70.9.9,12.1,1.7,19,1.7,32s.9,14.7,5.2,18.1c1.7,2.6,5.2,3.5,7.8,3.5l87.3.9c5.2,0,8.6-1.7,10.4-4.3h0Z"/>
      <path class="st1" d="M3439.8,703c-19-18.1-8.6-53.6-7.8-80.4,0-25.1,18.1-21.6,30.3-19,38.9,7.8,49.3-16.4,45-58.8-1.7-13-1.7-383.8,0-406.3.9-.9.9-2.6.9-3.5v-41.5c0-18.1-5.2-52.7,10.4-67.4,13.8-13,56.2-11.2,68.3,5.2,3.5,4.3,4.3,10.4,5.2,15.6,1.7,14.7.9,28.5,1.7,42.4,1.7,16.4.9,32.8.9,48.4s-3.5,38.9,13.8,46.7c5.2,2.6,11.2,1.7,17.3,2.6,6.9,1.7,13.8,3.5,20.8,6.1,19,5.2,11.2,29.4,12.1,46.7,1.7,19.9-1.7,41.5,24.2,45,25.9,4.3,38.9,6.1,46.7,14.7,3.5,3.5,5.2,8.6,6.1,13.8.9,10.4,1.7,19.9,1.7,29.4s-4.3,26.8,5.2,32.8c8.6,4.3,14.7.9,23.3.9s13,2.6,19,.9c9.5-3.5,9.5-18.1,9.5-26.8l.9-45.8c0-26.8,2.6-54.5,0-81.3-.9-8.6-1.7-18.1-1.7-25.9.9-70.9,0-71.7,55.3-80.4,25.9-3.5,22.5-25.1,23.3-45,1.7-17.3-6.1-41.5,12.1-46.7,20.8-6.9,47.5-13.8,64,1.7,19,19,7.8,53.6,7.8,81.3-.9,24.2-19,20.8-31.1,18.1-38.9-6.9-49.3,16.4-45,59.7.9,1.7.9,4.3.9,6.1v345.8c-.9,13,.9,91.6-.9,104.6-1.7,14.7-.9,28.5-1.7,42.4-.9,6.1-1.7,11.2-5.2,16.4-12.1,15.6-54.5,16.4-68.3,3.5-15.6-14.7-10.4-48.4-10.4-67.4v-94.2c0-14.7,3.5-35.4-3.5-49.3-6.1-11.2-17.3-11.2-28.5-8.6-10.4,1.7-25.1,4.3-29.4-9.5-1.7-1.7-2.6-4.3-3.5-6.1-1.7-6.9-1.7-15.6-1.7-22.5s.9-17.3-1.7-25.9c-5.2-21.6-23.3-26.8-44.1-23.3-4.3.9-10.4,1.7-14.7.9-11.2-1.7-16.4-10.4-17.3-20.8l.9-38c0-12.1.9-25.1-6.1-35.4-6.1-8.6-20.8-14.7-31.1-11.2-23.3,6.9-19,41.5-19,59.7l-.9,82.1v98.6c-.9,70,0,71.7-55.3,79.5-25.1,4.3-22.5,25.1-23.3,45.8-1.7,16.4,6.1,40.6-12.1,46.7-20.8,6.1-47.5,13-63.1-2.6h0Z"/>
      <path class="st1" d="M4024.1,698V33.2c0-6.9,6.1-13,12.1-13h65.7c4.3,0,8.6,4.3,8.6,8.6v673.4c0,4.3-4.3,8.6-8.6,8.6h-65.7c-6.1,0-12.1-6.1-12.1-13ZM4208.3,531.1V129.2c0-5.2,3.5-8.6,8.6-8.6h38c5.2,0,8.6,3.5,8.6,8.6v402c0,5.2-3.5,8.6-8.6,8.6h-38c-5.2,0-8.6-3.5-8.6-8.6h0ZM4307.7,702.3v-73.5c0-12.1-3.5-29.4,7.8-36.3,9.5-6.9,26.8-2.6,37.2-2.6s8.6-4.3,8.6-8.6V79c0-5.2-3.5-8.6-8.6-8.6h-36.3c-4.3,0-8.6-3.5-8.6-8.6V28.9c0-4.3,4.3-8.6,8.6-8.6h125.3c6.9,0,12.1,6.1,12.1,13v664.8c0,6.9-5.2,13-12.1,13h-125.3c-4.3,0-8.6-4.3-8.6-8.6h0Z"/>
      <path class="st1" d="M4542,691.7l-1.7-653.6c0-12.1,2.6-17.3,15.6-17.3l152.2-.9c8.6,0,13.8,3.5,13.8,13v69.2c0,7.8-4.3,10.4-11.2,10.4h-1.7c-12.1,1.7-27.7-6.1-35.4,4.3-5.2,8.6-1.7,24.2-1.7,36.3v52.7c.9,12.1-3.5,15.6-14.7,15.6-23.6,0-35.4,12.1-35.4,36.3l.9,435.7c.9,13.8-3.5,18.1-17.3,17.3-13.8-.9-28.5-.9-42.4,0-16.4,1.7-25.1-2.6-20.8-19h0ZM4719.2,326.9l.9-83c0-6.1,1.7-10.4,7.8-10.4,13,0,25.1-.9,38,.9,9.5.9,5.2,10.4,6.9,15.6l-.9,75.2c0,1.7.9,4.3,0,5.2-11.2,13.8-25.9,4.3-38.9,6.1-6.9.9-13.8.9-13.8-9.5h0ZM4720.9,688.2l-1.7-287.9c0-9.5,2.6-14.7,13-14.7,48.4.9,39.8-6.1,39.8,38l.9,256.7c0,37.2.9,30.3-29.4,30.3s-22.5,1.7-22.5-22.5h0ZM4870.5,694.3V238.7c0-15.6-4.3-19-19-18.1-31.1,1.7-31.1.9-32-30.3l.9-64.8c0-10.4-3.5-13.8-13-13.8-25.4-.6-37.8-13.8-37.2-39.8l-.9-32c-.9-14.7,2.6-22.5,17.3-19l148.7-.9c12.1,0,15.6,6.1,15.6,17.3v658.7c.9,12.1-4.3,14.7-15.6,14.7-15.6-.9-32-.9-48.4,0-12.1.9-16.4-3.5-16.4-16.4h0Z"/>
      <path class="st1" d="M5038.2,689.9v-324.2l-.9-320.7c0-19,4.3-27.7,25.9-25.9,30.3,1.7,61.4.9,92.5-.9,21.6-1.7,25.1,7.8,24.2,25.9,0,162.5.9,325-.9,487.6,0,26.8,6.1,35.4,33.7,33.7,50.1-2.6,101.1,0,151.3-.9,19-.9,27.7,3.5,25.9,25.1-1.7,34.6-.9,70,0,104.6.9,16.4-6.1,20.8-20.8,20.8-104.6-.9-208.3-.9-312.1,0-20.8,0-19-11.2-19-25.1h0Z"/>
    </g>
  </g>
</svg>