<?xml version="1.0" encoding="UTF-8"?>
<svg id="Layer_1" data-name="Layer 1" xmlns="http://www.w3.org/2000/svg" viewBox="0 0 430.37 422.95">
  <defs>
    <style>
      .cls-1 {
        fill: #fff;
      }
    </style>
  </defs>
  <path class="cls-1" d="M98.08,35.1C-45.08,129.33-24.09,346.5,133.63,411.59c7.83,3.23,29.58,11.41,37.19,11.36,4.57-.03,7.9-2.8,8.71-7.23-1.04-16.4,1.56-34.81.09-50.96-1.1-12.15-18.72-7.17-27.93-8.01-13.4-1.22-23.82-8.74-32.71-18.27-3.6-3.86-18.03-21.62-19.62-25.51-.16-.38-.22-1.37.4-1.24,19.7,12.44,34.38,30.02,60.1,26.67,16.51-2.15,21.95-20.17,19.66-34.56-1.15-7.23-16.91-9.89-23.32-12.61-40.28-17.07-72.34-54.63-64.13-100.84,3.38-19.05,14.55-33.48,26.32-48.06.17-7.56-4.04-13.74-4.74-21.66-.49-5.63,1.32-26.41,6.59-29.19,2.21-1.17,12.43,5.19,14.96,6.8,7.63,4.88,13.35,12.73,19.33,16.6,6.68,4.32,14.9-1.28,22-2.99,32.58-7.87,63.74-5.81,95.33,5.09,8.46-4.09,13.83-11.86,21.93-17.36,2.66-1.81,14.55-9.41,16.97-8.14,4.9,2.58,7.03,22.37,6.73,27.66-.39,6.82-5.91,18.58-4.87,23.19.45,2.02,13.46,17.15,16.06,21.56,32.39,54.92-6.16,108.87-58.64,129.26-6.43,2.5-16.37,4.15-21.7,6.72-9.31,4.49-1.37,15.79.35,22.57,7.09,27.97.29,64.3,2.81,93.29,2.46,13.17,24.64,3.59,33.18.7,81.38-27.54,138.96-104.53,144.76-189.93v-25.91C419.96,38.37,234.91-54.97,98.08,35.1ZM269,402.82c-1.17-29.77,3.17-60.32-4.19-89.41,42.54-11.46,83.54-46.11,91.66-90.94,5.63-31.1-4-60.96-24.69-84.31,5.59-18.49,4.62-39.47-5.62-56.17-6.66-10.85-9.44-12.38-21.45-8.21-13.6,4.72-25.36,14.03-36.19,23.2-10.64-2.07-21-5.33-31.82-6.59-25.24-2.93-49.86-.04-74.23,6.6-10.66-9.05-22.23-18.18-35.57-22.99-12.26-4.41-15.19-3.22-22.06,7.99-10.31,16.82-11.19,37.55-5.62,56.17-52.96,62.33-21.15,136.85,47.46,168.44,2.85,1.31,13.19,4.47,14.52,5.54,2.53,2.05-.62,7.86-3.95,8.6-13.92,3.11-27.56-10.57-38.08-17.55-16.65-11.05-32.42-17.63-52.87-18.23-6.23-.18-12.01,3.68-11.22,10.39.9,7.63,7.25,6.61,12.27,8.68,8.57,3.53,25.73,31.26,32.86,39.85,9.94,11.98,29.8,30.53,46.36,30.53h15.46v28.41c-71.79-20.7-128.65-83.53-140.15-157.77C-1.09,96.81,142.24-21.47,283.64,30.09c65.56,23.91,115.2,84.27,125.62,153.5,14.84,98.66-45.47,191.17-140.25,219.23Z"/>
</svg>