<?xml version="1.0" encoding="UTF-8"?>
<svg id="Layer_1" data-name="Layer 1" xmlns="http://www.w3.org/2000/svg" viewBox="0 0 2308.54 1260.13">
  <defs>
    <style>
      .cls-1 {
        fill: #fff;
      }
    </style>
  </defs>
  <path class="cls-1" d="M79.28,584.96c-13.89-12.68-6.04-37.45-6.04-56.17.6-17.52,13.29-14.5,21.75-13.29,27.18,5.44,34.43-11.48,31.41-41.07-1.21-9.66,0-7.25-.6-16.31-.6-16.91,3.02-29.6-2.42-43.49-6.64-18.72-24.16-6.04-36.24-9.06-20.54-5.44-14.5-25.97-15.1-41.68-.6-12.68-1.21-33.22,16.91-32.01,6.64.6,13.29-.6,19.93,0,13.89,1.21,17.52-7.25,17.52-22.35-.6-25.37-1.21-68.86-.6-93.62,1.21-21.75-5.44-30.2-22.95-30.8-10.27,0-26.58,8.46-29.6-12.68-2.42-18.72-7.85-42.28,4.83-56.78,11.48-12.68,29.6-7.25,43.49-2.42,15.7,5.44,10.27,24.77,9.66,38.05-1.21,26.58,9.66,28.39,26.58,28.39s25.97-6.04,22.35-28.99c-4.23-32.01,6.64-42.28,32.01-40.47,36.24,3.02,60.4,3.02,96.64.6,21.74-1.21,29.6,10.27,27.18,35.03-3.02,26.58,5.44,36.85,26.58,32.62,21.74-4.23,28.39,9.06,26.58,34.43-1.21,16.31,0,60.4-.6,77.31-1.21,48.32-1.21,46.51-38.66,47.72-12.08,0-13.89,9.66-13.89,21.14,0,12.68,5.44,39.26-9.06,46.51-3.02,1.81-6.04,2.42-9.06,3.02h-10.27c-22.35-.6-41.07-4.23-63.42-2.42-13.89.6-45.3-8.46-54.36,5.44-5.44,7.85-3.02,30.2-3.02,54.97-.6,48.93,0,50.13-38.66,55.57-17.52,3.02-15.7,17.52-16.31,32.01-1.21,11.48,4.23,28.39-8.46,32.62-14.5,4.23-33.22,9.06-44.09-1.81ZM257.47,330.66v-.6l55.57.6c10.87.6,16.91-4.83,16.91-19.93-.6-29.6-.6-76.71,0-106.31,0-16.31-7.25-19.33-17.52-19.33-39.87,0-67.05.6-106.31-.6-16.31,0-21.14,9.06-21.14,26.58.6,25.97,1.81,70.67,1.21,96.64-.6,18.72,7.25,23.56,19.93,22.95,21.14-.6,30.2,0,51.34,0Z"/>
  <path class="cls-1" d="M434.44,572.88c1.21-73.69.6-147.98.6-221.67s.6-149.8-.6-224.7c0-13.89,4.83-17.52,18.12-17.52h56.78c22.95,0,45.3.6,67.65,0h42.28c4.23.6,8.46,1.21,12.08,2.42,4.23.6,8.46,1.81,12.08,4.83,7.85,7.25,6.64,18.12,6.64,27.79v16.91c0,15.7,2.42,22.35,19.93,21.14,13.29-1.21,17.52-1.81,30.8-.6,3.02,0,6.04.6,8.46,2.42,8.46,6.64,6.04,19.93,6.04,28.99l.6,106.91c0,13.29-3.62,18.72-16.91,16.91-7.85-1.21-15.7.6-23.56-.6-16.91-1.81-23.56,2.42-25.37,16.91,0,2.42,0,13.29-.6,15.71,0,3.02,0,5.44.6,7.25,1.81,14.5,10.87,15.1,24.76,14.5,44.7-.6,44.7,6.04,44.7,50.13s-1.21,86.38.6,129.26c.6,20.54-6.64,25.37-25.37,24.16-16.31-1.21-33.22-1.81-49.53,0-18.12,2.42-21.14-5.44-20.54-21.74.6-49.53-.6-99.06.6-148.59,0-13.89-4.23-18.72-18.12-18.12-21.14,1.21-41.68,1.21-62.82,0-12.08-.6-15.7,3.62-15.7,16.31l.6,152.82c.6,15.1-4.23,19.93-19.33,19.33-17.52-1.21-35.64-1.21-53.76,0-16.31,1.21-21.74-3.62-21.74-21.14ZM583.63,299.26q41.07,0,41.07-41.68,0-51.95-52.55-51.34-43.49,0-43.49,43.49,0,49.53,48.32,49.53h6.64Z"/>
  <path class="cls-1" d="M761.81,591.6c-9.66,0-12.08-5.44-11.48-15.1,1.21-35.03.6-70.67,1.21-105.7.6-13.89,5.44-21.75,18.72-18.72,10.27,1.81,16.31-3.62,16.31-14.5.6-14.5,0-34.43,0-48.93s6.64-22.35,18.72-21.14c10.27,1.21,17.52-3.62,18.12-14.5,1.81-18.12,4.23-28.39,2.42-49.53-.6-7.25-.6-13.29-7.85-12.08-6.64.6-18.72-4.23-18.12,7.25.6,12.68-10.87,10.27-17.52,10.27-9.06.6-7.25-10.87-7.25-17.52-.6-10.27,4.23-13.29,12.08-12.08,10.27,1.81,15.7-1.81,15.1-14.5-.6-12.68,6.04-16.91,15.7-16.91,12.08.6,52.55-.6,61.01.6,6.64,1.21,18.12.6,18.12,7.25.6,12.08,3.02,33.82-13.29,33.22-4.23,0-5.44,4.23-5.44,8.46,0,18.72,1.81,62.82-2.42,71.27-5.44,9.66-19.33,4.23-26.58,9.66-6.04,4.23-5.44,15.71-5.44,22.35l-1.21,33.22c0,12.08-3.62,19.33-15.1,18.12-10.27-1.21-15.7,4.83-16.91,14.5-1.21,17.52-1.81,34.43-1.81,51.34.6,9.67,5.44,10.27,11.48,10.27h13.29c1.21,0,2.42,0,4.23-.6,1.21,0,2.42-1.21,3.02-2.42.6-1.21,1.21-2.42,1.21-4.23v-13.29c0-4.83-.6-9.06,0-13.29,0-1.81.6-4.23,1.81-5.44,1.21-.6,2.42-1.21,3.62-1.21,5.44-1.81,7.85-.6,13.29-.6,1.81,0,3.62.6,5.44,1.21s3.02,1.81,3.62,3.62c.6,1.21.6,1.81.6,2.42.6,6.04,0,12.08-.6,18.12-.6,7.25,0,15.1,0,22.35-.6,5.44-3.02,9.66-9.06,10.27-9.06,0-17.52.6-17.52,15.71,0,8.46-7.25,8.46-12.68,7.25-9.06-1.81-12.68,1.81-12.68,12.68s-6.04,13.29-14.5,12.69c-14.5-1.21-27.18-1.81-41.68-1.81ZM844.57,157.92c.6-12.68,1.81-24.77,17.52-21.14,7.25,1.81,7.85-4.83,7.85-10.27-.6-21.74,16.31-16.91,27.18-16.31,10.87,0,10.87,10.87,11.48,20.54.6,7.25.6,13.29,0,20.54q-3.02,39.26-37.45,39.26c-24.76,0-27.78-4.23-26.58-32.62Z"/>
  <path class="cls-1" d="M1048.72,578.31l1.21-284.49c0-24.77,0-50.13,1.21-75.5,0-10.27-3.62-13.29-13.89-13.29l-81.54.6c-11.48,0-16.91-1.81-16.31-15.1.6-22.35.6-44.7,0-67.05-.6-11.48,4.23-13.89,15.1-13.89l286.3-.6c12.08,0,13.89,4.83,13.89,15.1-.6,22.35-.6,44.7,0,67.05.6,11.48-3.62,14.5-15.1,14.5-24.16-1.21-48.32.6-73.09-.6-15.71-1.21-20.54,3.02-20.54,19.33,1.21,59.19.6,117.78.6,176.98s-.6,115.97,0,174.56c.6,13.29-2.42,19.33-16.91,18.12-21.75-1.21-43.49-.6-64.63,0-12.08.6-16.31-3.62-16.31-15.71Z"/>
  <path class="cls-1" d="M1267.37,589.18c-3.62-4.23-4.83-10.87-4.83-21.14.6-12.08-1.21-18.72-5.44-22.95-2.42-3.02-6.64-4.83-10.87-4.83-1.81,0-3.62.6-5.44.6-1.21.6-2.42.6-3.62.6-3.02,0-4.83-1.21-6.64-2.42-3.02-3.02-4.23-9.06-4.83-17.52,0-16.31.6-32.01-.6-48.32-1.21-15.1-1.81-28.39,3.62-34.43,2.42-3.02,6.04-4.23,10.87-4.23,1.81,0,3.02,0,4.83.6h1.81c3.02,0,7.25-1.21,9.06-7.25.6-3.62.6-7.85,0-11.48v-2.42l-.6-11.48c-.6-19.93,1.21-41.07,0-61.61-1.21-25.97,8.46-28.99,15.71-28.99h3.62c5.44,0,9.66-1.81,12.68-4.83,4.83-5.44,1.21-15.7,0-25.37-2.42-18.12-1.21-28.99,3.62-34.43,2.42-3.02,6.04-4.23,11.48-4.23,1.81,0,3.02,0,5.44.6h3.02c3.02,0,6.04-1.21,7.85-3.62,3.02-3.02,3.62-7.85,2.42-14.5-2.42-11.48-1.81-19.33,1.81-24.16,3.62-4.23,9.06-6.04,16.91-6.04,4.83,0,10.27-.6,13.29-4.83,3.02-3.02,3.62-7.25,3.02-13.29-1.21-9.66,0-16.31,3.02-19.93,2.42-2.42,6.04-3.62,10.87-3.62h5.44c2.42.6,4.23.6,6.64.6,6.64,0,11.48-1.81,14.5-5.44,3.62-4.83,4.83-13.29,2.42-24.76-.6-6.04-.6-10.27,1.81-12.08,1.21-2.42,4.23-3.02,9.06-3.02h127.45c4.83,0,7.85.6,10.27,3.02,2.42,3.02,3.62,8.46,3.62,16.31-.6,10.27,1.21,17.52,4.83,21.74,3.02,3.02,6.64,4.23,11.48,4.23,1.21,0,3.02,0,4.83-.6h3.62c2.42,0,4.23.6,5.44,1.81,3.02,3.02,4.83,9.06,4.83,18.73,1.21,29.6,0,51.95,1.81,73.69.6,10.87-.6,17.52-3.62,21.14-1.81,1.81-3.62,2.42-7.25,2.42-1.21,0-3.02,0-4.83-.6-2.42-.6-4.83-.6-6.64-.6-4.23,0-7.85,1.21-10.27,4.23-3.62,4.23-4.23,11.48-3.02,22.95,1.81,11.48,1.21,49.53,1.21,57.99,0,5.44,3.02,15.71-2.42,19.93-1.21,1.21-2.42,1.81-4.23,1.81-6.04,1.21-11.48-.6-16.31,4.83-3.62,4.23-4.23,12.08-4.23,23.56v16.91c2.42,15.1.6,25.97-3.62,31.41-3.02,3.02-6.64,4.83-12.08,4.83-3.02,0-6.04-.6-9.66-1.21-1.81-.6-3.02-1.21-4.83-1.21-3.02,0-6.04,1.81-8.46,4.23-3.02,3.62-3.62,9.66-2.42,17.52,1.81,13.29,1.21,22.35-2.42,26.58-1.81,1.81-4.83,3.02-8.46,3.02-2.42,0-4.83-.6-8.46-1.21-1.81-.6-3.62-1.21-5.44-1.21-3.62,0-7.25,1.21-9.06,3.62-2.42,3.02-3.62,7.85-3.02,13.29.6,8.46-.6,14.5-3.02,17.52-1.81,1.81-4.23,2.42-7.85,2.42-1.81,0-4.23,0-6.04-.6-3.02-.6-6.04-.6-8.46-.6-6.64,0-11.48,1.81-15.1,6.04-5.44,5.44-7.25,14.5-6.04,28.39.6,6.04,0,10.87-2.42,13.29-1.81,2.42-4.83,3.02-9.06,3.02l-50.74.6h-62.21c-4.23,0-7.25-1.21-9.66-3.02ZM1376.1,534.82c1.81-2.42,3.02-6.04,1.81-10.87-1.21-9.06,0-10.87,2.42-13.89,1.81-1.81,4.83-3.02,9.66-3.02l6.04.6h4.23c4.23,0,9.66-.6,13.29-4.83s4.83-10.87,3.62-20.54c-.6-4.83-.6-9.66,1.21-13.89,1.81-3.02,6.64-3.62,10.27-3.62s7.25.6,10.27,1.21c4.83,0,9.67-2.42,12.08-5.44,5.44-6.64,6.64-15.71,3.62-35.64-1.21-7.85-.6-12.68,1.21-15.71,1.81-1.81,3.62-2.42,6.64-2.42,1.21,0,3.02,0,4.23.6,2.42,0,4.23.6,5.44.6,4.23,0,7.85-1.21,10.27-4.23,3.02-3.62,4.23-10.27,3.62-21.14l-.6-42.89c.6-10.27,1.81-21.75,1.21-32.62,0-5.44,1.21-13.89,7.85-15.1s15.7,1.21,19.33-6.04c3.02-6.04,1.81-13.29,1.21-19.33-1.21-7.85-.6-80.33-4.23-90-4.23-12.08-13.29-14.5-24.76-14.5-6.04,0-21.14.6-30.2,1.81h-6.64c-6.04.6-9.66,4.83-9.06,11.48,0,6.04,1.81,21.75-3.02,25.97-1.81,1.21-4.23,1.81-6.04,2.42-9.67,2.42-16.31-1.21-25.37-1.21-3.62,0-6.64,1.21-8.46,3.62-4.83,4.83-4.83,5.44-3.62,15.1.6,6.64,1.21,15.71-1.81,19.33-1.21,1.21-3.02,1.81-5.44,1.81h-3.02c-3.02-.6-5.44-1.21-7.85-1.21-5.44,0-9.67,1.81-12.68,5.44-4.83,5.44-6.04,15.1-3.62,28.39,1.81,10.27.6,18.12-2.42,21.74-1.81,1.81-4.23,3.02-7.25,3.02-1.81,0-3.62-.6-5.44-.6-1.81-.6-4.23-1.21-6.04-1.21-4.23,0-7.85,1.81-10.27,4.23-3.62,4.23-4.83,11.48-3.62,23.56,1.21,20.54.6,41.07,1.21,61.61,0,2.42-1.21,5.44-1.21,8.46.6,10.87,0,20.54-6.64,20.54-8.46.6-14.5,3.62-17.52,10.87-2.42,5.44-1.81,13.29-2.42,21.74v1.21c-1.21,16.31-1.21,33.22,0,49.53.6,8.46,1.21,13.29,1.21,22.35,0,6.04.6,10.27,3.62,12.69,1.21,1.81,3.62,2.42,5.44,2.42l61.01.6c3.62,0,6.04-1.21,7.25-3.02Z"/>
  <path class="cls-1" d="M1949.91,589.18c-4.83-4.83-4.23-10.27-4.23-16.31l.6-22.95,2.42-41.68c1.21-12.08-6.04-39.26,8.46-47.11,7.25-3.62,16.91-1.21,21.74-6.64,3.62-3.02,3.62-7.85,4.23-12.68,1.21-19.33-1.81-38.05-.6-56.78.6-3.02.6-6.04,1.81-8.46,3.02-6.04,10.87-9.06,18.12-8.46,13.89.6,14.5-12.08,15.7-22.95l3.02-27.18c1.21-12.68,1.21-24.76,1.81-37.45,0-6.04,0-12.08,1.21-18.72.6-3.02.6-9.06,3.02-12.08.6-1.21,2.42-1.81,4.23-2.42,5.44-1.81,10.27-1.21,15.71-1.21,6.04,0,9.66-4.83,11.48-15.1,0-1.21,0-2.42.6-3.62,1.21-9.66,1.21-19.93,0-29.6-.6-3.02-1.21-6.64-4.23-8.46-9.66-6.04-32.01-3.02-34.43,10.27-.6,4.23.6,8.46-.6,12.08-2.42,6.04-9.67,8.46-15.71,9.06-6.64,0-13.29-.6-18.72,1.81-2.42.6-4.83,1.81-6.04,4.23-.6,1.81-1.21,3.62-1.21,5.44-.6,6.64,1.21,15.1-4.23,19.33-2.42,1.81-6.04,2.42-9.06,3.02-7.25.6-10.27-1.21-16.91,1.81-7.25,3.02-6.04,16.31-6.64,22.35,0,5.44-3.02,10.87-7.85,13.89-4.23,3.62-14.5,1.81-19.33,3.62-4.23,1.21-4.83,3.02-4.83,8.46-.6,6.04,0,24.16-1.81,30.2-1.21,5.44-5.44,11.48-11.48,12.68-1.81.6-4.23.6-6.64.6-13.29,1.21-19.93,12.68-21.14,25.37q-1.81,17.52-1.21,35.64c.6,6.04,1.21,13.29-1.81,19.33-4.23,8.46-13.89,9.06-22.35,7.25h-1.81c-7.25,0-9.06,7.85-10.27,21.14l-1.81,15.1c-1.21,11.48-.6,23.56-1.81,35.03-1.21,13.89,0,25.97-5.44,31.41-2.42,2.42-5.44,3.62-9.06,3.62-1.21,0-2.42-.6-3.62-.6h-2.42c-2.42,0-4.83.6-6.64,3.02-4.23,4.23-4.83,11.48-5.44,17.52-.6,22.35-7.25,28.39-21.14,30.2h-7.25c-.6-.6-1.81-.6-3.02-.6-3.02,0-5.44.6-7.85,1.21s-4.83.6-7.25.6c-3.62,0-6.04-1.21-7.25-6.04-3.02-13.89-1.81-30.2-1.21-44.7,0-3.02.6-6.04,1.81-8.46,5.44-8.46,16.91-3.02,21.74-9.67,1.81-2.42,1.81-4.83,1.81-7.85.6-7.85,7.25-64.63,4.23-57.38,4.23-18.12,6.04-24.76,13.29-24.76,1.81,0,3.02.6,4.83.6,1.81.6,3.02,1.21,4.83,1.21,3.02,0,6.04-1.21,8.46-3.62,3.62-4.23,3.02-10.27,4.23-21.14,1.21-16.31.6-33.22,3.02-49.53,1.21-9.06,1.81-18.12,2.42-27.79.6-3.62,1.21-7.85,3.62-10.87,8.46-10.27,25.97,1.21,28.99-17.52,4.23-31.41,10.87-62.82,10.87-94.83,0-6.64,1.21-13.89,0-20.54-2.42-7.85-15.1-10.87-21.75-4.23-2.42,2.42-1.21,6.64-2.42,10.27-.6,3.02-3.62,4.83-6.64,6.04-5.44,1.81-9.66.6-15.7,1.81-2.42,0-4.83.6-7.25,1.21-7.25,1.21-10.87,6.64-10.87,17.52-.6,8.46-1.81,14.5-4.83,17.52-1.81,1.81-7.25,3.02-10.87,3.02h-4.83c-1.81-.6-3.62-.6-5.44-.6-4.83,0-6.04,1.21-9.06,4.23-3.02,4.23-4.83,10.27-4.83,19.33,0,5.44-.6,10.87-6.04,13.89-5.44,3.02-15.7-1.21-19.33,6.04-1.21,1.81-1.21,3.62-1.81,6.04-.6,5.44-.6,10.87-.6,16.31,0,1.81,0,3.62-.6,4.83-1.21,3.62-4.23,6.04-7.85,6.64-7.85,2.42-18.12-1.81-24.16,4.83-3.62,3.62-5.44,9.67-6.04,19.33-1.21,10.87,1.21,22.35,0,33.22-1.21,10.27-1.21,21.14-1.81,31.41-.6,9.06-2.42,15.1-5.44,18.12-1.21,1.21-3.02,1.81-5.44,1.81h-3.02c-1.81-.6-3.02-.6-4.83-.6-4.23,0-7.25,1.21-10.27,4.23-4.23,4.23-3.62,12.08-4.23,24.16-1.81,27.18-4.23,44.7-6.64,71.27,0,1.81,0,3.02-.6,4.23-1.81,3.62-5.44,4.83-8.46,4.83-3.62.6-7.25,0-10.27,1.21-7.25,3.02-6.04,22.35-7.25,28.39,0,1.81-.6,3.62-1.21,5.44-4.23,19.33-9.06,21.14-15.1,21.14-2.42,0-4.83-.6-7.85-.6-2.42-.6-5.44-1.21-8.46-1.21-.6,0-1.81.6-2.42.6h-1.81c-2.42,0-4.23-.6-4.83-1.81-3.02-3.62-4.23-12.08-3.02-19.33,0-1.81.6-3.62.6-5.44,1.21-15.1,0-30.2,1.81-44.7,2.42-21.75,3.02-44.09,4.83-65.84,0-2.42.6-5.44,2.42-7.25,1.21-1.21,3.02-1.81,4.83-1.81,9.06-1.81,19.33.6,26.58-7.25,5.44-5.44,5.44-15.1,6.04-30.2.6-14.5,1.81-28.39,4.23-42.89,1.81-12.68-.6-25.37.6-38.05,0-1.21.6-2.42.6-3.62,3.62-8.46,13.29-6.04,19.93-6.04,4.23,0,5.44-1.21,7.85-4.23,4.23-4.23,6.64-12.08,7.25-25.37,1.21-17.52.6-35.03,1.81-52.55,0-2.42,0-4.23,1.21-6.04,1.81-5.44,8.46-4.23,12.08-6.04,4.23-1.21,4.83-6.64,5.44-10.27,1.81-13.29,1.81-26.58,2.42-41.07,0-2.42-1.21-4.83-3.02-6.04-4.23-3.02-18.12-.6-22.95-.6-6.04.6-10.87,1.21-11.48,8.46-.6,12.68-11.48,10.87-18.12,10.87-7.85,0-5.44-11.48-5.44-18.72.6-10.87,6.64-14.5,13.89-13.29,9.66,1.81,15.1-1.81,16.31-15.1.6-13.29,5.44-18.12,14.5-17.52h7.25c21.75-.6,43.49-1.21,65.23,0l7.25,1.21c1.81.6,4.23,1.81,5.44,4.23,1.81,3.62,1.21,8.46,1.21,12.08,0,4.23-.6,8.46-1.21,12.08-1.21,7.25-4.83,13.89-12.68,13.89-4.23,0-6.04,4.23-6.04,8.46l-2.42,31.41c0,5.44-.6,11.48-1.21,17.52,0,4.23-2.42,13.89.6,18.12,2.42,2.42,5.44,2.42,8.46,3.02,3.02.6,6.04,0,8.46-2.42.6-1.21.6-2.42,1.21-3.62,1.21-8.46,1.21-16.31,1.81-24.76.6-4.23,1.81-10.87,4.83-13.29,3.02-1.81,6.64-1.21,9.66-1.21l12.08.6c4.23,0,8.46-.6,12.68-4.23,3.62-4.23,5.44-9.66,5.44-20.54,0-7.25-1.21-13.29,1.81-16.31,1.81-2.42,5.44-3.62,9.66-3.62,1.81,0,3.62,0,6.04.6,3.62.6,6.64,1.21,9.06,1.21,6.04,0,10.27-1.81,13.29-5.44,4.83-5.44,6.64-13.89,6.04-26.58,0-4.83,1.21-8.46,2.42-10.27,1.81-1.81,4.83-3.02,9.06-3.02h.6l32.01.6,32.01-.6h.6c3.62,0,6.64.6,7.85,3.02,2.42,3.02,3.02,8.46,1.81,16.91-1.81,12.68-8.46,82.75-7.85,105.7,0,3.02,0,6.04,2.42,7.85,1.81,1.21,4.23.6,6.64.6l4.83-.6c2.42-.6,4.83-.6,6.64-2.42,1.81-2.42,1.21-5.44,1.21-7.85-.6-6.04.6-12.08.6-18.72,0-2.42,0-5.44.6-7.85,1.81-2.42,4.23-4.83,7.25-5.44,4.23-1.81,10.27-1.81,15.1-2.42,5.44-.6,22.35.6,23.56-6.64,1.21-6.04-1.21-15.1-.6-21.74.6-19.93,34.43-8.46,44.09-19.93,5.44-5.44,5.44-14.5,4.83-28.99,0-3.62,1.21-6.64,2.42-8.46,1.81-1.81,4.23-2.42,8.46-2.42h43.49c19.93,0,29.6.6,33.22,8.46,4.83,10.87,5.44,24.77,4.83,36.85,0,10.27-2.42,20.54-1.81,30.81,0,12.08-.6,24.16-1.81,36.85-.6,1.81-1.21,4.23-3.02,5.44-1.21,1.21-3.02,1.81-4.23,1.81-4.83.6-9.66,1.21-13.89,3.02-4.23,1.81-8.46,4.23-10.87,8.46-1.21,3.02-1.21,5.44-1.81,8.46-2.42,14.5-2.42,29.6-3.62,44.09-1.21,16.31.6,34.43-7.25,42.28-3.02,3.02-6.64,4.83-12.08,4.83-1.81,0-4.23-.6-6.64-1.21h-1.81c-2.42,0-7.25,1.21-9.67,8.46-1.21,4.23.6,9.06,0,13.29-2.42,26.58-1.81,50.13-4.83,73.09-2.42,22.35-9.66,22.35-12.68,22.35h-3.02c-1.21-.6-2.42-.6-3.62-.6-12.68,0-14.5,14.5-16.31,23.56-1.81,7.25-1.81,14.5-1.81,21.14v13.89c0,4.83.6,9.66,0,13.89.6,3.02.6,7.25,3.62,8.46,1.21.6,2.42.6,3.62.6,2.42.6,4.83,0,7.25.6h3.02c3.02,0,6.64-.6,9.66-3.62,2.42-3.02,2.42-7.85,3.02-14.5,0-7.25,1.21-12.08,3.62-15.1,1.81-1.21,3.62-2.42,6.04-2.42.6,0,1.21,0,1.81.6h2.42c5.44,0,7.85-1.81,10.87-5.44,4.83-5.44,5.44-13.89,6.04-25.97,0-9.06,1.21-15.1,4.23-18.12,1.21-1.21,3.02-1.81,6.64-1.81h4.83c1.81.6,4.23.6,6.04.6h1.21c1.21,0,1.81,0,3.02-.6h4.83c3.02,0,4.83.6,5.44,1.81,1.81,2.42,1.81,7.25.6,14.5-.6,3.62.6,7.25.6,10.87-1.81,16.31-3.62,23.56-12.68,23.56-1.21,0-.6,0-1.81-.6h-3.62c-3.62,0-6.64,1.21-9.06,3.62-3.02,3.62-4.83,10.27-5.44,20.54,0,12.08-.6,20.54-4.23,24.16-2.42,2.42-4.83,3.02-7.85,3.02-1.81,0-3.62,0-5.44-.6-2.42-.6-4.23-.6-6.04-.6-3.62,0-7.25,1.21-10.27,4.23-3.62,4.23-4.23,10.87-4.23,20.54,0,6.64-1.21,10.87-3.02,12.68-1.81,1.81-4.23,2.42-8.46,2.42h-3.02c-3.02,0-42.28,1.81-50.13,1.21-6.64-.6-13.29,0-18.72-4.83Z"/>
  <path class="cls-1" d="M395.48,1146.28c-4.83-4.83-4.23-10.27-4.23-16.31l.6-22.95,2.42-41.68c1.21-12.08-6.04-39.26,8.46-47.11,7.25-3.62,16.91-1.21,21.74-6.64,3.62-3.02,3.62-7.85,4.23-12.68,1.21-19.33-1.81-38.05-.6-56.78.6-3.02.6-6.04,1.81-8.46,3.02-6.04,10.87-9.06,18.12-8.46,13.89.6,14.5-12.08,15.7-22.95l3.02-27.18c1.21-12.68,1.21-24.76,1.81-37.45,0-6.04,0-12.08,1.21-18.72.6-3.02.6-9.06,3.02-12.08.6-1.21,2.42-1.81,4.23-2.42,5.44-1.81,10.27-1.21,15.7-1.21,6.04,0,9.66-4.83,11.48-15.1,0-1.21,0-2.42.6-3.62,1.21-9.66,1.21-19.93,0-29.6-.6-3.02-1.21-6.64-4.23-8.46-9.66-6.04-32.01-3.02-34.43,10.27-.6,4.23.6,8.46-.6,12.08-2.42,6.04-9.66,8.46-15.7,9.06-6.64,0-13.29-.6-18.72,1.81-2.42.6-4.83,1.81-6.04,4.23-.6,1.81-1.21,3.62-1.21,5.44-.6,6.64,1.21,15.1-4.23,19.33-2.42,1.81-6.04,2.42-9.06,3.02-7.25.6-10.27-1.21-16.91,1.81-7.25,3.02-6.04,16.31-6.64,22.35,0,5.44-3.02,10.87-7.85,13.89-4.23,3.62-14.5,1.81-19.33,3.62-4.23,1.21-4.83,3.02-4.83,8.46-.6,6.04,0,24.16-1.81,30.2-1.21,5.44-5.44,11.48-11.48,12.68-1.81.6-4.23.6-6.64.6-13.29,1.21-19.93,12.68-21.14,25.37q-1.81,17.52-1.21,35.64c.6,6.04,1.21,13.29-1.81,19.33-4.23,8.46-13.89,9.06-22.35,7.25h-1.81c-7.25,0-9.06,7.85-10.27,21.14l-1.81,15.1c-1.21,11.48-.6,23.56-1.81,35.03-1.21,13.89,0,25.97-5.44,31.41-2.42,2.42-5.44,3.62-9.06,3.62-1.21,0-2.42-.6-3.62-.6h-2.42c-2.42,0-4.83.6-6.64,3.02-4.23,4.23-4.83,11.48-5.44,17.52-.6,22.35-7.25,28.39-21.14,30.2h-7.25c-.6-.6-1.81-.6-3.02-.6-3.02,0-5.44.6-7.85,1.21-2.42.6-4.83.6-7.25.6-3.62,0-6.04-1.21-7.25-6.04-3.02-13.89-1.81-30.2-1.21-44.7,0-3.02.6-6.04,1.81-8.46,5.44-8.46,16.91-3.02,21.74-9.66,1.81-2.42,1.81-4.83,1.81-7.85.6-7.85,7.25-64.63,4.23-57.38,4.23-18.12,6.04-24.76,13.29-24.76,1.81,0,3.02.6,4.83.6,1.81.6,3.02,1.21,4.83,1.21,3.02,0,6.04-1.21,8.46-3.62,3.62-4.23,3.02-10.27,4.23-21.14,1.21-16.31.6-33.22,3.02-49.53,1.21-9.06,1.81-18.12,2.42-27.79.6-3.62,1.21-7.85,3.62-10.87,8.46-10.27,25.97,1.21,28.99-17.52,4.23-31.41,10.87-62.82,10.87-94.83,0-6.64,1.21-13.89,0-20.54-2.42-7.85-15.1-10.87-21.74-4.23-2.42,2.42-1.21,6.64-2.42,10.27-.6,3.02-3.62,4.83-6.64,6.04-5.44,1.81-9.66.6-15.7,1.81-2.42,0-4.83.6-7.25,1.21-7.25,1.21-10.87,6.64-10.87,17.52-.6,8.46-1.81,14.5-4.83,17.52-1.81,1.81-7.25,3.02-10.87,3.02h-4.83c-1.81-.6-3.62-.6-5.44-.6-4.83,0-6.04,1.21-9.06,4.23-3.02,4.23-4.83,10.27-4.83,19.33,0,5.44-.6,10.87-6.04,13.89-5.44,3.02-15.7-1.21-19.33,6.04-1.21,1.81-1.21,3.62-1.81,6.04-.6,5.44-.6,10.87-.6,16.31,0,1.81,0,3.62-.6,4.83-1.21,3.62-4.23,6.04-7.85,6.64-7.85,2.42-18.12-1.81-24.16,4.83-3.62,3.62-5.44,9.66-6.04,19.33-1.21,10.87,1.21,22.35,0,33.22-1.21,10.27-1.21,21.14-1.81,31.41-.6,9.06-2.42,15.1-5.44,18.12-1.21,1.21-3.02,1.81-5.44,1.81h-3.02c-1.81-.6-3.02-.6-4.83-.6-4.23,0-7.25,1.21-10.27,4.23-4.23,4.23-3.62,12.08-4.23,24.16-1.81,27.18-4.23,44.7-6.64,71.27,0,1.81,0,3.02-.6,4.23-1.81,3.62-5.44,4.83-8.46,4.83-3.62.6-7.25,0-10.27,1.21-7.25,3.02-6.04,22.35-7.25,28.39,0,1.81-.6,3.62-1.21,5.44-4.23,19.33-9.06,21.14-15.1,21.14-2.42,0-4.83-.6-7.85-.6-2.42-.6-5.44-1.21-8.46-1.21-.6,0-1.81.6-2.42.6h-1.81c-2.42,0-4.23-.6-4.83-1.81-3.02-3.62-4.23-12.08-3.02-19.33,0-1.81.6-3.62.6-5.44,1.21-15.1,0-30.2,1.81-44.7,2.42-21.75,3.02-44.09,4.83-65.84,0-2.42.6-5.44,2.42-7.25,1.21-1.21,3.02-1.81,4.83-1.81,9.06-1.81,19.33.6,26.58-7.25,5.44-5.44,5.44-15.1,6.04-30.2.6-14.5,1.81-28.39,4.23-42.89,1.81-12.68-.6-25.37.6-38.05,0-1.21.6-2.42.6-3.62,3.62-8.46,13.29-6.04,19.93-6.04,4.23,0,5.44-1.21,7.85-4.23,4.23-4.23,6.64-12.08,7.25-25.37,1.21-17.52.6-35.03,1.81-52.55,0-2.42,0-4.23,1.21-6.04,1.81-5.44,8.46-4.23,12.08-6.04,4.23-1.21,4.83-6.64,5.44-10.27,1.81-13.29,1.81-26.58,2.42-41.07,0-2.42-1.21-4.83-3.02-6.04-4.23-3.02-18.12-.6-22.95-.6-6.04.6-10.87,1.21-11.48,8.46-.6,12.68-11.48,10.87-18.12,10.87-7.85,0-5.44-11.48-5.44-18.72.6-10.87,6.64-14.5,13.89-13.29,9.66,1.81,15.1-1.81,16.31-15.1.6-13.29,5.44-18.12,14.5-17.52h7.25c21.74-.6,43.49-1.21,65.23,0l7.25,1.21c1.81.6,4.23,1.81,5.44,4.23,1.81,3.62,1.21,8.46,1.21,12.08,0,4.23-.6,8.46-1.21,12.08-1.21,7.25-4.83,13.89-12.68,13.89-4.23,0-6.04,4.23-6.04,8.46l-2.42,31.41c0,5.44-.6,11.48-1.21,17.52,0,4.23-2.42,13.89.6,18.12,2.42,2.42,5.44,2.42,8.46,3.02,3.02.6,6.04,0,8.46-2.42.6-1.21.6-2.42,1.21-3.62,1.21-8.46,1.21-16.31,1.81-24.76.6-4.23,1.81-10.87,4.83-13.29,3.02-1.81,6.64-1.21,9.66-1.21l12.08.6c4.23,0,8.46-.6,12.68-4.23,3.62-4.23,5.44-9.66,5.44-20.54,0-7.25-1.21-13.29,1.81-16.31,1.81-2.42,5.44-3.62,9.66-3.62,1.81,0,3.62,0,6.04.6,3.62.6,6.64,1.21,9.06,1.21,6.04,0,10.27-1.81,13.29-5.44,4.83-5.44,6.64-13.89,6.04-26.58,0-4.83,1.21-8.46,2.42-10.27,1.81-1.81,4.83-3.02,9.06-3.02h.6l32.01.6,32.01-.6h.6c3.62,0,6.64.6,7.85,3.02,2.42,3.02,3.02,8.46,1.81,16.91-1.81,12.69-8.46,82.75-7.85,105.7,0,3.02,0,6.04,2.42,7.85,1.81,1.21,4.23.6,6.64.6l4.83-.6c2.42-.6,4.83-.6,6.64-2.42,1.81-2.42,1.21-5.44,1.21-7.85-.6-6.04.6-12.08.6-18.72,0-2.42,0-5.44.6-7.85,1.81-2.42,4.23-4.83,7.25-5.44,4.23-1.81,10.27-1.81,15.1-2.42,5.44-.6,22.35.6,23.56-6.64,1.21-6.04-1.21-15.1-.6-21.75.6-19.93,34.43-8.46,44.09-19.93,5.44-5.44,5.44-14.5,4.83-28.99,0-3.62,1.21-6.64,2.42-8.46,1.81-1.81,4.23-2.42,8.46-2.42h43.49c19.93,0,29.6.6,33.22,8.46,4.83,10.87,5.44,24.76,4.83,36.84,0,10.27-2.42,20.54-1.81,30.81,0,12.08-.6,24.16-1.81,36.84-.6,1.81-1.21,4.23-3.02,5.44-1.21,1.21-3.02,1.81-4.23,1.81-4.83.6-9.66,1.21-13.89,3.02-4.23,1.81-8.46,4.23-10.87,8.46-1.21,3.02-1.21,5.44-1.81,8.46-2.42,14.5-2.42,29.6-3.62,44.09-1.21,16.31.6,34.43-7.25,42.28-3.02,3.02-6.64,4.83-12.08,4.83-1.81,0-4.23-.6-6.64-1.21h-1.81c-2.42,0-7.25,1.21-9.66,8.46-1.21,4.23.6,9.06,0,13.29-2.42,26.58-1.81,50.13-4.83,73.09-2.42,22.35-9.66,22.35-12.68,22.35h-3.02c-1.21-.6-2.42-.6-3.62-.6-12.68,0-14.5,14.5-16.31,23.56-1.81,7.25-1.81,14.5-1.81,21.14v13.89c0,4.83.6,9.66,0,13.89.6,3.02.6,7.25,3.62,8.46,1.21.6,2.42.6,3.62.6,2.42.6,4.83,0,7.25.6h3.02c3.02,0,6.64-.6,9.66-3.62,2.42-3.02,2.42-7.85,3.02-14.5,0-7.25,1.21-12.08,3.62-15.1,1.81-1.21,3.62-2.42,6.04-2.42.6,0,1.21,0,1.81.6h2.42c5.44,0,7.85-1.81,10.87-5.44,4.83-5.44,5.44-13.89,6.04-25.97,0-9.06,1.21-15.1,4.23-18.12,1.21-1.21,3.02-1.81,6.64-1.81h4.83c1.81.6,4.23.6,6.04.6h1.21c1.21,0,1.81,0,3.02-.6h4.83c3.02,0,4.83.6,5.44,1.81,1.81,2.42,1.81,7.25.6,14.5-.6,3.62.6,7.25.6,10.87-1.81,16.31-3.62,23.56-12.68,23.56-1.21,0-.6,0-1.81-.6h-3.62c-3.62,0-6.64,1.21-9.06,3.62-3.02,3.62-4.83,10.27-5.44,20.54,0,12.08-.6,20.54-4.23,24.16-2.42,2.42-4.83,3.02-7.85,3.02-1.81,0-3.62,0-5.44-.6-2.42-.6-4.23-.6-6.04-.6-3.62,0-7.25,1.21-10.27,4.23-3.62,4.23-4.23,10.87-4.23,20.54,0,6.64-1.21,10.87-3.02,12.68-1.81,1.81-4.23,2.42-8.46,2.42h-3.02c-3.02,0-42.28,1.81-50.13,1.21-6.64-.6-13.29,0-18.72-4.83Z"/>
  <path class="cls-1" d="M608.7,1146.28c-3.62-4.23-4.83-10.87-4.83-21.14.6-12.08-1.21-18.72-5.44-22.95-2.42-3.02-6.64-4.83-10.87-4.83-1.81,0-3.62.6-5.44.6-1.21.6-2.42.6-3.62.6-3.02,0-4.83-1.21-6.64-2.42-3.02-3.02-4.23-9.06-4.83-17.52,0-16.31.6-32.01-.6-48.32-1.21-15.1-1.81-28.39,3.62-34.43,2.42-3.02,6.04-4.23,10.87-4.23,1.81,0,3.02,0,4.83.6h1.81c3.02,0,7.25-1.21,9.06-7.25.6-3.62.6-7.85,0-11.48v-2.42l-.6-11.48c-.6-19.93,1.21-41.07,0-61.61-1.21-25.97,8.46-28.99,15.7-28.99h3.62c5.44,0,9.66-1.81,12.68-4.83,4.83-5.44,1.21-15.7,0-25.37-2.42-18.12-1.21-28.99,3.62-34.43,2.42-3.02,6.04-4.23,11.48-4.23,1.81,0,3.02,0,5.44.6h3.02c3.02,0,6.04-1.21,7.85-3.62,3.02-3.02,3.62-7.85,2.42-14.5-2.42-11.48-1.81-19.33,1.81-24.16,3.62-4.23,9.06-6.04,16.91-6.04,4.83,0,10.27-.6,13.29-4.83,3.02-3.02,3.62-7.25,3.02-13.29-1.21-9.66,0-16.31,3.02-19.93,2.42-2.42,6.04-3.62,10.87-3.62h5.44c2.42.6,4.23.6,6.64.6,6.64,0,11.48-1.81,14.5-5.44,3.62-4.83,4.83-13.29,2.42-24.76-.6-6.04-.6-10.27,1.81-12.08,1.21-2.42,4.23-3.02,9.06-3.02h127.45c4.83,0,7.85.6,10.27,3.02,2.42,3.02,3.62,8.46,3.62,16.31-.6,10.27,1.21,17.52,4.83,21.74,3.02,3.02,6.64,4.23,11.48,4.23,1.21,0,3.02,0,4.83-.6h3.62c2.42,0,4.23.6,5.44,1.81,3.02,3.02,4.83,9.06,4.83,18.73,1.21,29.6,0,51.95,1.81,73.69.6,10.87-.6,17.52-3.62,21.14-1.81,1.81-3.62,2.42-7.25,2.42-1.21,0-3.02,0-4.83-.6-2.42-.6-4.83-.6-6.64-.6-4.23,0-7.85,1.21-10.27,4.23-3.62,4.23-4.23,11.48-3.02,22.95,1.81,11.48,1.21,49.53,1.21,57.99,0,5.44,3.02,15.71-2.42,19.93-1.21,1.21-2.42,1.81-4.23,1.81-6.04,1.21-11.48-.6-16.31,4.83-3.62,4.23-4.23,12.08-4.23,23.56v16.91c2.42,15.1.6,25.97-3.62,31.41-3.02,3.02-6.64,4.83-12.08,4.83-3.02,0-6.04-.6-9.66-1.21-1.81-.6-3.02-1.21-4.83-1.21-3.02,0-6.04,1.81-8.46,4.23-3.02,3.62-3.62,9.66-2.42,17.52,1.81,13.29,1.21,22.35-2.42,26.58-1.81,1.81-4.83,3.02-8.46,3.02-2.42,0-4.83-.6-8.46-1.21-1.81-.6-3.62-1.21-5.44-1.21-3.62,0-7.25,1.21-9.06,3.62-2.42,3.02-3.62,7.85-3.02,13.29.6,8.46-.6,14.5-3.02,17.52-1.81,1.81-4.23,2.42-7.85,2.42-1.81,0-4.23,0-6.04-.6-3.02-.6-6.04-.6-8.46-.6-6.64,0-11.48,1.81-15.1,6.04-5.44,5.44-7.25,14.5-6.04,28.39.6,6.04,0,10.87-2.42,13.29-1.81,2.42-4.83,3.02-9.06,3.02l-50.74.6h-62.21c-4.23,0-7.25-1.21-9.66-3.02ZM717.42,1091.92c1.81-2.42,3.02-6.04,1.81-10.87-1.21-9.06,0-10.87,2.42-13.89,1.81-1.81,4.83-3.02,9.66-3.02l6.04.6h4.23c4.23,0,9.66-.6,13.29-4.83,3.62-4.23,4.83-10.87,3.62-20.54-.6-4.83-.6-9.67,1.21-13.89,1.81-3.02,6.64-3.62,10.27-3.62s7.25.6,10.27,1.21c4.83,0,9.66-2.42,12.08-5.44,5.44-6.64,6.64-15.7,3.62-35.64-1.21-7.85-.6-12.68,1.21-15.71,1.81-1.81,3.62-2.42,6.64-2.42,1.21,0,3.02,0,4.23.6,2.42,0,4.23.6,5.44.6,4.23,0,7.85-1.21,10.27-4.23,3.02-3.62,4.23-10.27,3.62-21.14l-.6-42.89c.6-10.27,1.81-21.75,1.21-32.62,0-5.44,1.21-13.89,7.85-15.1,6.64-1.21,15.7,1.21,19.33-6.04,3.02-6.04,1.81-13.29,1.21-19.33-1.21-7.85-.6-80.33-4.23-90-4.23-12.08-13.29-14.5-24.77-14.5-6.04,0-21.14.6-30.2,1.81h-6.64c-6.04.6-9.66,4.83-9.06,11.48,0,6.04,1.81,21.74-3.02,25.97-1.81,1.21-4.23,1.81-6.04,2.42-9.66,2.42-16.31-1.21-25.37-1.21-3.62,0-6.64,1.21-8.46,3.62-4.83,4.83-4.83,5.44-3.62,15.1.6,6.64,1.21,15.7-1.81,19.33-1.21,1.21-3.02,1.81-5.44,1.81h-3.02c-3.02-.6-5.44-1.21-7.85-1.21-5.44,0-9.66,1.81-12.68,5.44-4.83,5.44-6.04,15.1-3.62,28.39,1.81,10.27.6,18.12-2.42,21.74-1.81,1.81-4.23,3.02-7.25,3.02-1.81,0-3.62-.6-5.44-.6-1.81-.6-4.23-1.21-6.04-1.21-4.23,0-7.85,1.81-10.27,4.23-3.62,4.23-4.83,11.48-3.62,23.56,1.21,20.54.6,41.07,1.21,61.61,0,2.42-1.21,5.44-1.21,8.46.6,10.87,0,20.54-6.64,20.54-8.46.6-14.5,3.62-17.52,10.87-2.42,5.44-1.81,13.29-2.42,21.74v1.21c-1.21,16.31-1.21,33.22,0,49.53.6,8.46,1.21,13.29,1.21,22.35,0,6.04.6,10.27,3.62,12.68,1.21,1.81,3.62,2.42,5.44,2.42l61.01.6c3.62,0,6.04-1.21,7.25-3.02Z"/>
  <path class="cls-1" d="M930.64,1144.47c-13.29-12.68-6.04-37.45-5.44-56.17,0-17.52,12.68-15.1,21.14-13.29,27.18,5.44,34.43-11.48,31.41-41.07-1.21-9.06-1.21-268.18,0-283.89.6-.6.6-1.81.6-2.42v-28.99c0-12.68-3.62-36.85,7.25-47.11,9.66-9.06,39.26-7.85,47.72,3.62,2.42,3.02,3.02,7.25,3.62,10.87,1.21,10.27.6,19.93,1.21,29.6,1.21,11.48.6,22.95.6,33.83s-2.42,27.18,9.66,32.62c3.62,1.81,7.85,1.21,12.08,1.81,4.83,1.21,9.66,2.42,14.5,4.23,13.29,3.62,7.85,20.54,8.46,32.62,1.21,13.89-1.21,28.99,16.91,31.41,18.12,3.02,27.18,4.23,32.62,10.27,2.42,2.42,3.62,6.04,4.23,9.66.6,7.25,1.21,13.89,1.21,20.54s-3.02,18.72,3.62,22.95c6.04,3.02,10.27.6,16.31.6,4.23,0,9.06,1.81,13.29.6,6.64-2.42,6.64-12.68,6.64-18.72l.6-32.01c0-18.72,1.81-38.05,0-56.78-.6-6.04-1.21-12.68-1.21-18.12.6-49.53,0-50.13,38.66-56.17,18.12-2.42,15.7-17.52,16.31-31.41,1.21-12.08-4.23-28.99,8.46-32.62,14.5-4.83,33.22-9.66,44.7,1.21,13.29,13.29,5.44,37.45,5.44,56.78-.6,16.91-13.29,14.5-21.75,12.68-27.18-4.83-34.43,11.48-31.41,41.68.6,1.21.6,3.02.6,4.23v241.61c-.6,9.06.6,64.03-.6,73.09-1.21,10.27-.6,19.93-1.21,29.6-.6,4.23-1.21,7.85-3.62,11.48-8.46,10.87-38.05,11.48-47.72,2.42-10.87-10.27-7.25-33.82-7.25-47.11v-65.84c0-10.27,2.42-24.76-2.42-34.43-4.23-7.85-12.08-7.85-19.93-6.04-7.25,1.21-17.52,3.02-20.54-6.64-1.21-1.21-1.81-3.02-2.42-4.23-1.21-4.83-1.21-10.87-1.21-15.7,0-6.04.6-12.08-1.21-18.12-3.62-15.1-16.31-18.72-30.81-16.31-3.02.6-7.25,1.21-10.27.6-7.85-1.21-11.48-7.25-12.08-14.5l.6-26.58c0-8.46.6-17.52-4.23-24.76-4.23-6.04-14.5-10.27-21.75-7.85-16.31,4.83-13.29,28.99-13.29,41.68l-.6,57.38v68.86c-.6,48.93,0,50.13-38.66,55.57-17.52,3.02-15.71,17.52-16.31,32.01-1.21,11.48,4.23,28.39-8.46,32.62-14.5,4.23-33.22,9.06-44.09-1.81Z"/>
  <path class="cls-1" d="M1338.95,1140.24v-464.49c0-4.83,4.23-9.06,8.46-9.06h45.91c3.02,0,6.04,3.02,6.04,6.04v470.53c0,3.02-3.02,6.04-6.04,6.04h-45.91c-4.23,0-8.46-4.23-8.46-9.06ZM1467.6,1023.66v-280.87c0-3.62,2.42-6.04,6.04-6.04h26.58c3.62,0,6.04,2.42,6.04,6.04v280.87c0,3.62-2.42,6.04-6.04,6.04h-26.58c-3.62,0-6.04-2.42-6.04-6.04ZM1537.07,1143.26v-51.34c0-8.46-2.42-20.54,5.44-25.37,6.64-4.83,18.72-1.81,25.97-1.81,3.62,0,6.04-3.02,6.04-6.04v-350.94c0-3.62-2.42-6.04-6.04-6.04h-25.37c-3.02,0-6.04-2.42-6.04-6.04v-22.95c0-3.02,3.02-6.04,6.04-6.04h87.58c4.83,0,8.46,4.23,8.46,9.06v464.49c0,4.83-3.62,9.06-8.46,9.06h-87.58c-3.02,0-6.04-3.02-6.04-6.04Z"/>
  <path class="cls-1" d="M1700.75,1136.01l-1.21-456.64c0-8.46,1.81-12.08,10.87-12.08l106.31-.6c6.04,0,9.66,2.42,9.66,9.06v48.32c0,5.44-3.02,7.25-7.85,7.25h-1.21c-8.46,1.21-19.33-4.23-24.76,3.02-3.62,6.04-1.21,16.91-1.21,25.37v36.84c.6,8.46-2.42,10.87-10.27,10.87q-24.76,0-24.76,25.37l.6,304.43c.6,9.66-2.42,12.68-12.08,12.08-9.66-.6-19.93-.6-29.6,0-11.48,1.21-17.52-1.81-14.5-13.29ZM1824.58,881.11l.6-57.99c0-4.23,1.21-7.25,5.44-7.25,9.06,0,17.52-.6,26.58.6,6.64.6,3.62,7.25,4.83,10.87l-.6,52.55c0,1.21.6,3.02,0,3.62-7.85,9.66-18.12,3.02-27.18,4.23-4.83.6-9.66.6-9.66-6.64ZM1825.78,1133.59l-1.21-201.14c0-6.64,1.81-10.27,9.06-10.27,33.83.6,27.79-4.23,27.79,26.58l.6,179.39c0,25.97.6,21.14-20.54,21.14-17.52,0-15.7,1.21-15.7-15.7ZM1930.28,1137.82v-318.32c0-10.87-3.02-13.29-13.29-12.68-21.74,1.21-21.74.6-22.35-21.14l.6-45.3c0-7.25-2.42-9.66-9.06-9.66q-26.58-.6-25.97-27.79l-.6-22.35c-.6-10.27,1.81-15.71,12.08-13.29l103.89-.6c8.46,0,10.87,4.23,10.87,12.08v460.26c.6,8.46-3.02,10.27-10.87,10.27-10.87-.6-22.35-.6-33.82,0-8.46.6-11.48-2.42-11.48-11.48Z"/>
  <path class="cls-1" d="M2047.45,1134.8v-226.51l-.6-224.09c0-13.29,3.02-19.33,18.12-18.12,21.14,1.21,42.89.6,64.63-.6,15.1-1.21,17.52,5.44,16.91,18.12,0,113.56.6,227.11-.6,340.67,0,18.72,4.23,24.76,23.56,23.56,35.03-1.81,70.67,0,105.7-.6,13.29-.6,19.33,2.42,18.12,17.52-1.21,24.16-.6,48.93,0,73.09.6,11.48-4.23,14.5-14.5,14.5-73.09-.6-145.57-.6-218.05,0-14.5,0-13.29-7.85-13.29-17.52Z"/>
</svg>