<?xml version="1.0" encoding="UTF-8"?>
<svg id="Layer_1" data-name="Layer 1" xmlns="http://www.w3.org/2000/svg" viewBox="0 0 422.95 422.95">
  <defs>
    <style>
      .cls-1 {
        fill: #fff;
      }
    </style>
  </defs>
  <g id="insta">
    <g>
      <path class="cls-1" d="M202.07,111.85c-83.2,5.62-131.67,98.19-87.91,170.08,44.63,73.32,152.95,70.67,193.5-4.99,41.47-77.39-18.39-170.97-105.59-165.08ZM283.92,269.93c-33.03,53.23-109.36,55.82-145.81,4.78-39.81-55.74-2.97-133.78,64.76-138.86,71-5.33,118.89,73.09,81.05,134.08Z"/>
      <path class="cls-1" d="M298.34,126.02c28.59,35.16,80.94-12.28,48.79-44.52-28.93-29.02-75.27,11.96-48.79,44.52ZM317.36,111.35c-8.05-8.08,3.83-20.96,12.53-12.97,8.76,8.05-4.06,21.47-12.53,12.97Z"/>
    </g>
    <path class="cls-1" d="M330.11,422.95H92.84c-51.19,0-92.84-41.65-92.84-92.84V92.84C0,41.65,41.65,0,92.84,0h237.27c51.19,0,92.84,41.65,92.84,92.84v237.27c0,51.19-41.65,92.84-92.84,92.84ZM92.84,15C49.92,15,15,49.92,15,92.84v237.27c0,42.92,34.92,77.84,77.84,77.84h237.27c42.92,0,77.84-34.92,77.84-77.84V92.84c0-42.92-34.92-77.84-77.84-77.84H92.84Z"/>
  </g>
</svg>