<?xml version="1.0" encoding="UTF-8"?>
<svg id="Layer_1" data-name="Layer 1" xmlns="http://www.w3.org/2000/svg" viewBox="0 0 422.95 422.95">
  <defs>
    <style>
      .cls-1 {
        fill: #fff;
      }
    </style>
  </defs>
  <g>
    <path class="cls-1" d="M232.7,171.31c-.37-6.68-.56-12.91-8.63-13.87-17.52-2.09-39.14,1.55-57.11.08-3.5.74-5.93,2.54-7.01,5.98l-.4,163.24c1.67,13.55,11.78,23.53,25.5,24.72,9.21.79,30.08,1.06,39.02-.01,3.86-.46,6.63-2.36,7.79-6.06l.82-108.28c3.22-12.42,32.87-12.88,41.58-6.03,2.1,1.65,2.44,3.72,3.04,4.32v2.6c0,35.06.02,70.15-.02,105.23.58,4.83,3.37,7.65,8.23,8.23,17.32,2.06,38.57-1.59,56.32,0,3.84-.46,6.62-2.35,7.79-6.06l.4-125.13c-7.52-54.66-73.02-82.87-117.32-48.94ZM332.72,334.11h-38.1v-103.47c0-.92-3.45-7.46-4.33-8.66-11.63-15.76-45.94-15.67-61.4-5.99-5.51,3.45-13.93,13.18-13.93,19.84v98.28h-30.74c-1.92,0-7.36-5.44-7.36-7.36v-151.97h38.1v17.75c0,.56,2.33,4,3.15,4.65,8.56,6.76,17.76-7.12,24.28-11.86,27.1-19.7,65.16-12.96,82.71,15.7,2.08,3.4,7.63,15.77,7.63,19.22v113.87Z"/>
    <path class="cls-1" d="M138.27,157.52l-58.63.14c-4.07,1.11-6.21,3.81-6.71,8.01l.22,179.06c1.01,3.76,3.42,5.87,7.22,6.64l58.63-.14c4.07-1.11,6.21-3.81,6.71-8.01l-.22-179.06c-1.01-3.76-3.42-5.87-7.22-6.64ZM128.37,334.11h-38.1v-159.33h38.1v159.33Z"/>
    <path class="cls-1" d="M112.34,143.59c47.83-3.61,41.84-78.2-7.54-72.48-45.97,5.33-39.85,76.05,7.54,72.48ZM105.62,88.4c25.93-4.42,30.88,33.68,7.39,37.68-25.84,4.4-31.01-33.65-7.39-37.68Z"/>
  </g>
  <path class="cls-1" d="M330.11,422.95H92.84c-51.19,0-92.84-41.65-92.84-92.84V92.84C0,41.65,41.65,0,92.84,0h237.27c51.19,0,92.84,41.65,92.84,92.84v237.27c0,51.19-41.65,92.84-92.84,92.84ZM92.84,15C49.92,15,15,49.92,15,92.84v237.27c0,42.92,34.92,77.84,77.84,77.84h237.27c42.92,0,77.84-34.92,77.84-77.84V92.84c0-42.92-34.92-77.84-77.84-77.84H92.84Z"/>
</svg>